<?xml version="1.0" standalone="no"?>
<!DOCTYPE svg PUBLIC "-//W3C//DTD SVG 1.1//EN" "http://www.w3.org/Graphics/SVG/1.1/DTD/svg11.dtd" >
<svg>
<metadata>
Created by FontForge 20120731 at Thu May 18 09:54:28 2017
 By www-data
Copyright \(c\) 2017 by Nasir Udin. All rights reserved.
</metadata>
<defs>
<font id="ParisienNight-Oblique" horiz-adv-x="381" >
  <font-face 
    font-family="Parisien Night"
    font-weight="400"
    font-style="oblique"
    font-stretch="normal"
    units-per-em="1000"
    panose-1="0 0 0 0 0 0 0 0 0 0"
    ascent="750"
    descent="-250"
    x-height="493"
    cap-height="769"
    bbox="-417.981 -527 1101.68 962.528"
    underline-thickness="50"
    underline-position="-50"
    unicode-range="U+0020-2122"
  />
    <missing-glyph />
    <glyph glyph-name="space" unicode=" " horiz-adv-x="252" 
 />
    <glyph glyph-name="u" unicode="u" horiz-adv-x="447" 
d="M490 480c21 -29 9 -79 3 -121c-24 -121 -72 -309 -72 -345c3 -9 -14 -23 -38 -10c-31 18 -17 120 -4 187c-35 -105 -94 -183 -210 -205c-152 -28 -117 202 -89 302c12 49 34 104 58 145c8 13 48 75 69 62c12 -9 7 -35 -1 -76c-9 -39 -23 -90 -34 -135
c-8 -34 -56 -206 2 -206c104 12 174 276 205 350c17 50 72 94 111 52z" />
    <glyph glyph-name="i" unicode="i" horiz-adv-x="169" 
d="M257 675c29 3 41 -30 33 -56c-11 -33 -53 -50 -82 -37c-13 7 -18 18 -17 32c3 27 38 58 66 61zM220 480c13 -9 3 -39 -8 -79c-11 -39 -23 -91 -35 -139c-12 -60 -25 -121 -52 -186c-19 -45 -43 -75 -59 -72s-15 33 -12 76c5 60 16 120 31 185c11 51 32 109 61 154
c27 44 61 69 74 61z" />
    <glyph glyph-name="q" unicode="q" horiz-adv-x="456" 
d="M398 -96c-27 -113 -73 -256 -106 -259c-34 0 -15 141 12 255c15 60 28 119 41 179c-55 -61 -149 -99 -222 -89c-71 8 -93 77 -83 148c27 147 163 312 333 336c37 5 130 1 146 -51c7 -17 2 -29 -6 -34c-15 -10 -39 8 -78 8c-39 3 -96 -13 -141 -38
c-80 -43 -145 -126 -158 -210c-5 -28 -3 -60 26 -67c80 -11 151 74 197 147c21 34 38 85 87 96c10 1 18 0 23 -3c18 -13 22 -35 12 -65c0 -7 -1 -12 -4 -19c-21 -108 -52 -217 -79 -334z" />
    <glyph glyph-name="c" unicode="c" horiz-adv-x="397" 
d="M165 274c-48 -95 -27 -188 86 -183c35 3 68 14 93 22c25 9 42 14 47 7c6 -7 -4 -22 -29 -45c-57 -51 -130 -76 -198 -65c-137 24 -151 163 -87 297c51 84 119 155 219 184c72 16 147 -11 168 -80c7 -31 -3 -48 -12 -51s-17 9 -32 24c-15 13 -37 27 -69 30
c-78 3 -137 -64 -186 -140z" />
    <glyph glyph-name="k" unicode="k" horiz-adv-x="373" 
d="M465 70c6 -7 3 -17 -8 -30c-11 -12 -32 -27 -61 -34c-106 -21 -168 97 -192 181c-27 -45 -46 -69 -68 -120c-15 -33 -38 -69 -79 -66c-32 1 -34 44 -21 103c35 173 84 326 143 534c27 93 72 211 105 208c34 -3 14 -121 -13 -214c-31 -107 -59 -212 -87 -317
c51 72 119 147 198 186c25 12 46 16 62 15c17 -1 24 -8 24 -16c-4 -17 -26 -31 -57 -58c-58 -49 -109 -106 -154 -171c48 -59 69 -164 149 -193c22 -8 50 4 59 -8z" />
    <glyph glyph-name="b" unicode="b" horiz-adv-x="443" 
d="M494 434c27 -84 -9 -195 -65 -291c-40 -66 -114 -150 -202 -153c-39 -3 -65 12 -78 25c-9 9 -13 17 -13 26c-11 -17 -18 -31 -41 -42c-7 -4 -23 -7 -34 -3c-27 13 -29 40 -26 71c8 61 20 118 33 177c28 117 59 229 95 346c21 65 48 139 79 196c15 29 30 52 46 70
c15 16 30 24 35 19c5 -4 6 -15 4 -32c-4 -19 -9 -42 -17 -70c-41 -153 -91 -301 -131 -461c25 44 57 88 96 125c33 29 73 54 117 58c48 4 83 -20 102 -61zM349 177c28 47 49 100 57 148c3 24 10 77 -27 77c-38 -3 -74 -56 -98 -88c-55 -81 -97 -169 -140 -265
c12 12 52 -1 89 12c51 17 90 68 119 116z" />
    <glyph glyph-name="r" unicode="r" horiz-adv-x="348" 
d="M422 372c5 -7 10 -14 7 -22c-5 -29 -57 -21 -72 -14c-36 16 -49 49 -76 76c-38 -78 -46 -166 -65 -249c-13 -48 -41 -188 -123 -169c-64 13 -49 105 -44 166c4 55 36 258 91 258c23 0 25 -42 22 -90c11 51 28 126 83 166c19 13 37 15 60 15c67 -8 85 -89 117 -137z" />
    <glyph glyph-name="o" unicode="o" horiz-adv-x="424" 
d="M462 282c-8 -129 -100 -300 -255 -297c-144 0 -187 119 -139 275c27 83 88 182 175 224c39 19 69 18 73 3c15 7 14 9 34 6c91 -19 115 -119 112 -211zM228 84c113 0 154 184 127 267c-15 47 -23 73 -56 97c-32 -36 -66 -69 -95 -113c-72 -101 -113 -251 24 -251z" />
    <glyph glyph-name="w" unicode="w" horiz-adv-x="555" 
d="M647 507c-81 -177 -78 -505 -241 -525c-129 -16 -101 155 -85 259c-43 -63 -118 -279 -218 -279c-48 0 -69 52 -66 104c0 67 7 85 20 147c17 68 44 144 72 204c27 59 58 99 74 94c15 -4 8 -45 -5 -104c-13 -60 -32 -133 -48 -198c-32 -134 -48 -195 54 -13
c29 53 107 223 174 223c77 0 44 -120 36 -176c-3 -25 -42 -167 2 -167c28 0 62 146 73 194c16 77 74 244 148 299c21 11 33 -14 10 -62z" />
    <glyph glyph-name="n" unicode="n" horiz-adv-x="439" 
d="M437 -4c-1 -8 -12 -18 -35 -14c-108 24 -48 183 -32 261c4 31 45 179 -1 175c-48 -11 -79 -81 -96 -125c-28 -69 -48 -138 -85 -210c-19 -35 -47 -74 -90 -85c-61 -16 -68 51 -63 99c9 51 22 95 33 142c19 68 39 135 59 204c3 11 3 18 10 26c3 4 8 6 14 5
c7 -1 13 -5 19 -12c9 -15 15 -35 16 -62c0 -40 -25 -143 -36 -187c27 64 73 189 133 244c23 23 53 43 92 52c29 6 56 3 82 -10c65 -41 24 -180 8 -254c-27 -110 -50 -165 -34 -225c1 -9 7 -16 6 -24z" />
    <glyph glyph-name="f" unicode="f" horiz-adv-x="274" 
d="M433 396c-7 -25 -61 -35 -190 -39c27 -72 8 -215 0 -296c-8 -80 -45 -288 -150 -288c-94 0 -72 183 -60 254c13 99 42 215 65 328h-2c-24 -8 -12 81 10 81c3 0 8 0 11 1c19 95 39 152 125 238c27 25 62 39 97 31c52 -14 72 -79 64 -135c-3 -24 -15 -39 -22 -38
s-10 11 -17 28c-5 19 -37 100 -72 65c-62 -70 -72 -104 -93 -190c147 -3 239 -13 234 -40zM112 -106c32 72 36 71 49 161c5 45 27 210 8 247c-19 -140 -57 -256 -57 -408z" />
    <glyph glyph-name="x" unicode="x" horiz-adv-x="442" 
d="M425 40c9 -15 16 -23 12 -31c-4 -11 -17 -15 -38 -13c-97 11 -111 110 -160 191c-43 -45 -81 -80 -118 -117c-43 -45 -79 -77 -91 -66c-13 8 4 52 41 108c35 52 74 111 123 162c-30 59 -48 126 -89 180c-9 13 -16 21 -13 29c3 11 18 18 37 15c71 -14 111 -85 149 -143
c47 43 108 83 155 110c56 32 107 40 110 23c4 -16 -36 -44 -80 -85c-39 -35 -98 -82 -141 -125c34 -100 45 -167 103 -238z" />
    <glyph glyph-name="j" unicode="j" horiz-adv-x="311" 
d="M474 379c5 -26 -126 -98 -161 -128c-28 -133 -62 -261 -119 -401c-36 -87 -142 -346 -277 -346c-134 0 -49 299 -9 391c63 151 169 295 318 396c6 20 30 138 5 148c-15 3 -27 2 -30 10c-3 7 2 21 29 33c12 7 34 10 53 -1c40 -21 44 -81 41 -133c24 8 136 60 150 31z
M103 -132c39 92 70 184 95 292c-87 -78 -153 -172 -200 -283c-36 -88 -87 -277 -52 -277c45 0 120 176 157 268zM232 572c-24 15 -22 45 3 70c24 19 62 41 78 6c7 -15 6 -27 3 -38c-10 -36 -52 -49 -84 -38z" />
    <glyph glyph-name="m" unicode="m" horiz-adv-x="564" 
d="M577 522c122 -24 -24 -380 -44 -512c0 -10 -5 -44 -26 -34c-86 41 62 421 20 421c-55 0 -133 -379 -234 -379c-107 0 19 295 -1 355c-26 -34 -51 -137 -77 -210c-22 -62 -61 -178 -128 -178c-90 0 -41 242 -25 305c21 68 43 116 59 116s17 -47 10 -115
c-4 -48 -10 -96 -13 -147c54 66 70 374 218 374c89 0 38 -196 30 -253c25 70 102 269 211 257z" />
    <glyph glyph-name="p" unicode="p" horiz-adv-x="495" 
d="M444 518c128 -29 122 -214 66 -336c-45 -99 -134 -201 -249 -201c-39 3 -95 15 -120 42c-44 -100 -44 -333 -116 -393c-11 -8 -43 -30 -68 -2c-12 17 -4 42 15 120c61 256 129 511 156 765c3 20 4 32 11 39c8 7 23 0 34 -21c27 -48 23 -122 16 -190
c56 85 145 193 255 177zM421 201c24 53 52 210 -19 223c-72 8 -169 -143 -194 -201c-23 -53 -39 -110 -58 -167c122 -21 201 -5 271 145z" />
    <glyph glyph-name="s" unicode="s" horiz-adv-x="347" 
d="M60 308c-3 126 161 227 271 189c59 -22 79 -84 71 -130c-4 -19 -17 -27 -25 -26c-19 3 -37 61 -88 69c-41 7 -95 -6 -123 -50c-48 -76 107 -84 150 -115c39 -28 52 -84 28 -137c-23 -52 -78 -89 -134 -104c-85 -24 -192 12 -160 70c11 17 65 -29 135 -7
c41 12 64 39 73 68c8 26 -29 40 -49 45c-73 19 -146 40 -149 128z" />
    <glyph glyph-name="v" unicode="v" horiz-adv-x="355" 
d="M440 521c50 0 -46 -265 -66 -318c-29 -61 -91 -216 -182 -211c-76 5 -94 138 -99 202c-8 52 -23 312 15 312c52 0 64 -380 111 -400c76 72 194 415 221 415z" />
    <glyph glyph-name="l" unicode="l" horiz-adv-x="207" 
d="M235 120c7 0 5 -20 -10 -49c-15 -31 -65 -70 -115 -70c-97 0 -32 203 -5 301c48 185 97 355 140 515c6 24 13 38 21 42s32 -13 35 -40c8 -110 -51 -327 -102 -522c-29 -114 -63 -227 -33 -227c49 8 53 50 69 50z" />
    <glyph glyph-name="a" unicode="a" 
d="M360 41c5 -27 19 -40 14 -49c-3 -5 -10 -6 -21 -3c-37 10 -64 58 -59 100c-53 -55 -128 -108 -202 -89c-49 12 -86 54 -79 110c5 95 106 162 197 194c25 8 106 28 114 62c16 70 -69 74 -127 43c-29 -16 -46 -33 -54 -30c-16 29 58 92 100 108c96 40 181 -18 170 -118
c-5 -40 -33 -80 -72 -104c-61 -37 -135 -46 -194 -92c-30 -22 -49 -64 -13 -79c41 -14 99 47 131 79c30 33 60 93 106 82c12 -3 20 -18 17 -33c-3 -52 -39 -121 -28 -181z" />
    <glyph glyph-name="z" unicode="z" horiz-adv-x="408" 
d="M419 60c-8 -41 -192 -86 -276 -86c-62 0 -138 13 -149 61c-7 33 8 67 47 96c56 40 382 226 335 258c-49 32 -161 10 -228 23c-35 5 -58 17 -55 34c4 19 31 30 68 39c36 8 123 17 166 14c65 -5 172 -23 145 -115c-32 -132 -260 -232 -368 -312c38 -13 119 -16 169 -11
c85 5 154 34 146 -1z" />
    <glyph glyph-name="y" unicode="y" horiz-adv-x="458" 
d="M479 499c135 0 -88 -510 -115 -564c-62 -121 -179 -308 -337 -300c-19 0 -108 24 -90 55c11 17 51 7 100 18c113 27 186 145 240 253c37 76 67 153 94 238c-48 -85 -157 -267 -272 -227c-85 26 -64 150 -43 227c12 51 104 304 146 304c37 0 -17 -132 -55 -288
c-19 -76 -30 -152 -2 -152c73 0 163 191 216 303c19 40 62 133 118 133z" />
    <glyph glyph-name="d" unicode="d" horiz-adv-x="495" 
d="M655 647c-29 -135 -91 -258 -188 -410c-11 -88 -21 -179 -8 -264c3 -19 8 -29 3 -37s-24 -9 -43 10c-40 38 -47 107 -50 165c-55 -58 -130 -112 -209 -112c-117 0 -134 110 -102 217c34 106 160 283 293 275c24 -2 43 -11 58 -28c24 114 70 366 178 366
c82 -3 76 -110 68 -182zM224 95c57 23 105 76 148 132c5 67 16 134 31 207c-120 19 -216 -126 -253 -229c-24 -64 -21 -149 74 -110zM493 420c52 101 101 186 82 310c-47 -112 -67 -219 -82 -310z" />
    <glyph glyph-name="g" unicode="g" horiz-adv-x="459" 
d="M525 380c3 -14 -6 -112 -40 -112c-18 0 -17 42 -33 82c-16 37 -55 59 -110 46c-100 -24 -176 -123 -208 -217c-8 -21 -16 -81 21 -81c115 -20 190 206 279 206c85 0 -38 -345 -78 -413c-58 -106 -164 -250 -293 -266c-56 -7 -101 23 -109 75c-3 20 0 32 11 37
c16 8 52 -33 74 -33c153 -16 290 317 314 423c-61 -61 -149 -132 -237 -124c-93 3 -103 102 -74 188c42 126 152 266 297 298c90 18 178 -18 186 -109z" />
    <glyph glyph-name="A" unicode="A" horiz-adv-x="568" 
d="M554 328c61 -5 109 -22 98 -57s-64 -44 -108 -41v-1c-4 -51 -12 -106 -20 -149c-3 -8 -14 -85 -35 -82c-27 0 -36 42 -42 67c-9 56 -4 113 1 173l-192 16c-33 -68 -66 -136 -115 -207c-28 -41 -57 -69 -72 -62s-9 38 6 83c21 65 53 126 85 194c-71 7 -116 24 -105 59
s64 44 153 36c59 118 191 398 294 398c116 0 60 -351 52 -427zM306 349l152 -13c11 97 28 200 17 299c-71 -85 -125 -190 -169 -286z" />
    <glyph glyph-name="B" unicode="B" horiz-adv-x="729" 
d="M638 383c73 -24 136 -86 117 -182c-45 -216 -324 -316 -495 -256c-61 -63 -165 -99 -231 -57c-66 48 -35 167 67 194c49 12 91 -1 134 -16c56 123 21 303 125 447c19 27 37 40 44 37c8 -4 4 -22 -4 -49c-53 -189 -31 -314 -79 -466c101 -41 310 22 342 165
c16 74 -133 113 -202 118c-31 3 -60 1 -76 31c-5 37 17 53 17 54c23 26 128 23 184 50c65 32 109 100 69 156c-35 51 -125 60 -205 39c-93 -24 -180 -87 -227 -179c-15 -28 -55 -153 -72 -153c-26 0 -21 100 3 169c70 195 275 293 451 266c81 -13 156 -64 164 -154
c8 -83 -46 -161 -126 -214zM97 -28c13 -13 47 -3 66 8c-19 4 -37 16 -60 9c-11 -3 -17 -10 -6 -17z" />
    <glyph glyph-name="C" unicode="C" horiz-adv-x="541" 
d="M140 455c103 150 321 334 498 294c68 -16 100 -85 76 -160c-17 -61 -60 -118 -111 -165c-23 -20 -39 -27 -47 -22c-16 11 39 115 47 138c29 71 22 115 -61 102c-120 -21 -237 -116 -309 -230c-83 -131 -101 -352 62 -368c123 -13 222 45 241 18
c-8 -52 -159 -135 -290 -122c-219 24 -255 295 -106 515z" />
    <glyph glyph-name="D" unicode="D" horiz-adv-x="623" 
d="M568 730c156 -59 185 -269 113 -438c-84 -195 -376 -382 -568 -322c-20 -27 -35 -16 -34 13c-15 8 -92 65 -59 92c15 11 36 -1 71 -10c43 166 106 305 130 496c-40 -19 -129 -158 -161 -147c-16 4 -9 45 18 98c94 179 316 274 490 218zM591 314c51 115 42 277 -75 325
c-72 27 -163 10 -242 -38c47 -134 -42 -398 -111 -547c160 -8 340 95 428 260z" />
    <glyph glyph-name="E" unicode="E" horiz-adv-x="511" 
d="M673 660c2 -9 7 -51 -16 -54c-11 -1 -16 12 -31 23c-51 35 -132 29 -201 16s-184 -56 -203 -143c-28 -131 179 -138 274 -138c19 0 21 -19 14 -38c-21 -60 -99 -62 -150 -73c-51 -8 -148 -51 -153 -114c-5 -67 73 -89 162 -81s136 50 147 34c14 -22 -72 -90 -144 -109
c-113 -29 -286 -4 -278 136c3 71 45 132 109 180c-73 33 -113 111 -90 206c30 140 184 227 316 243c89 11 209 0 244 -88z" />
    <glyph glyph-name="F" unicode="F" horiz-adv-x="476" 
d="M923 747c1 -23 -55 -52 -134 -79c-151 -55 -308 -80 -460 -77c8 -74 -15 -160 -37 -243c57 3 134 8 184 8c47 1 81 -1 84 -18c4 -19 -33 -43 -84 -60c-64 -23 -151 -31 -218 -34c-48 -109 -98 -252 -208 -314c-25 -15 -42 -14 -47 -6c-4 9 2 23 13 42
c51 88 96 179 135 283c-39 0 -145 34 -126 69c16 30 120 21 159 26c24 84 45 166 62 254c-88 8 -200 62 -176 102c13 21 66 6 138 6c325 0 363 32 578 52c77 5 137 13 137 -11z" />
    <glyph glyph-name="G" unicode="G" horiz-adv-x="628" 
d="M700 689c54 -48 66 -101 51 -111c-15 -13 -49 20 -104 47c-27 13 -58 23 -91 26c-157 13 -319 -147 -359 -306c-32 -134 34 -275 157 -275c37 0 84 19 98 35c-4 41 -7 82 1 127c11 72 59 159 143 151c64 -11 84 -86 76 -150c-8 -68 -58 -123 -122 -172
c12 -95 -88 -341 -247 -313c-25 4 -35 11 -32 21c3 9 17 15 37 23c104 40 128 113 141 214c-40 -16 -82 -32 -126 -32c-171 0 -272 177 -221 375c48 199 271 429 485 393c48 -8 86 -30 113 -53zM565 284c-23 -32 -19 -75 -18 -111c33 35 33 76 18 111z" />
    <glyph glyph-name="H" unicode="H" horiz-adv-x="494" 
d="M481 -7c5 -39 12 -66 -3 -79s-46 2 -69 41c-53 82 -39 191 -34 316c-51 -15 -99 -28 -155 -36c-18 -68 -58 -209 -141 -241c-15 -7 -26 -4 -29 3c-4 16 3 33 14 64c20 51 39 103 55 159c-14 -3 -61 -18 -72 -13c-7 4 -7 16 6 35c23 31 55 43 87 59c34 114 30 229 51 340
c7 35 13 60 29 68c19 8 36 -13 47 -48c27 -96 3 -209 -23 -330c47 11 95 19 146 42c21 106 59 258 144 351c21 21 47 39 68 42c23 3 30 -7 27 -15c-3 -9 -10 -16 -15 -25c-56 -85 -84 -185 -112 -290c32 23 56 44 68 37c32 -13 -49 -124 -91 -147c-29 -140 -14 -224 2 -333z
" />
    <glyph glyph-name="I" unicode="I" horiz-adv-x="160" 
d="M269 641c-46 -178 -78 -370 -145 -552c-27 -72 -59 -126 -78 -123s-15 54 -6 126c27 181 61 376 149 562c35 73 78 121 95 115c16 -8 4 -58 -15 -128z" />
    <glyph glyph-name="J" unicode="J" horiz-adv-x="382" 
d="M-122 -527c-56 0 -107 15 -150 38c-44 23 -78 54 -102 86s-37 64 -42 91c-5 25 0 43 9 48c19 8 49 -34 102 -74c27 -20 59 -40 95 -55s75 -24 111 -23c58 -1 107 21 148 66c47 51 83 109 115 172c60 125 94 261 121 398c17 89 36 192 56 273c21 83 44 142 64 142
c21 1 24 -56 23 -136c-3 -80 -14 -184 -31 -277c-28 -141 -63 -286 -134 -430c-35 -72 -78 -142 -137 -206c-33 -35 -73 -65 -118 -85c-43 -19 -89 -28 -130 -28z" />
    <glyph glyph-name="K" unicode="K" horiz-adv-x="436" 
d="M463 41c24 -27 64 -29 61 -48c-3 -11 -14 -18 -33 -22c-182 -40 -164 266 -185 316c-25 -15 -50 -27 -74 -38c-23 -73 -48 -154 -104 -225c-31 -39 -62 -60 -77 -49c-15 9 -6 39 7 76c19 51 37 102 56 155c-40 -9 -66 -9 -69 4c-3 17 39 46 95 81h1c27 96 44 191 59 287
c13 89 38 202 76 207c40 5 44 -108 30 -201c-11 -72 -25 -143 -41 -215c96 55 181 138 282 223c52 44 91 76 106 65s-9 -56 -52 -112c-56 -73 -123 -136 -207 -200c34 -92 0 -227 69 -304z" />
    <glyph glyph-name="L" unicode="L" horiz-adv-x="476" 
d="M682 -50c8 -6 7 -18 -4 -37c-32 -63 -122 -86 -189 -75c-109 19 -245 148 -345 153c-35 -47 -72 -97 -131 -122c-67 -21 -88 45 -83 105c13 87 96 139 178 131c81 145 74 303 103 468c11 64 31 139 59 196c28 56 60 93 77 88s10 -46 1 -98c-11 -55 -22 -120 -33 -181
c-27 -163 -27 -328 -108 -492c115 -4 245 -176 388 -160c38 3 73 33 87 24z" />
    <glyph glyph-name="M" unicode="M" horiz-adv-x="833" 
d="M803 -56c3 -17 31 -39 -2 -49c-63 -11 -83 84 -86 136c-8 196 124 593 87 597c-108 -58 -173 -576 -336 -576c-157 0 28 446 -3 536c-77 -136 -107 -306 -174 -459c-21 -45 -61 -121 -123 -121c-129 0 -61 325 -33 418c27 100 58 170 78 170s19 -71 8 -168
c-9 -84 -18 -164 -21 -248c87 174 132 566 315 566c143 0 27 -284 27 -409c48 112 138 400 296 416c106 4 77 -151 65 -232c-27 -155 -72 -308 -97 -476c-6 -47 -6 -80 -1 -101z" />
    <glyph glyph-name="N" unicode="N" horiz-adv-x="621" 
d="M807 858c7 -4 9 -9 8 -14c-5 -24 -25 -13 -57 -89c-76 -180 -98 -763 -299 -763c-75 0 -121 50 -150 114c-46 102 -49 224 -65 375c-32 -127 -48 -261 -117 -389c-19 -33 -54 -90 -98 -96c-25 -3 -14 26 -8 43c51 158 66 252 117 484c8 44 45 174 133 174
c75 0 83 -118 91 -177c13 -140 -3 -334 112 -411c120 208 91 493 210 676c26 38 76 89 123 73z" />
    <glyph glyph-name="O" unicode="O" horiz-adv-x="586" 
d="M672 549c-4 -202 -145 -569 -422 -561c-160 5 -197 176 -165 326c37 170 191 443 395 395c122 74 195 -59 192 -160zM505 288c73 141 131 353 9 402c16 -27 -32 -21 -76 -29c-140 -26 -222 -220 -241 -345c-13 -73 -16 -211 83 -211c99 -5 179 97 225 183z" />
    <glyph glyph-name="P" unicode="P" horiz-adv-x="515" 
d="M489 773c390 23 157 -561 -166 -579c-47 -3 -88 7 -121 22c-20 -37 -35 -230 -76 -234c-59 -12 -11 252 0 290l1 1c-8 8 -34 44 -22 56c6 5 18 3 36 -4c38 131 107 284 138 281c36 -4 -25 -199 -57 -315c129 -43 273 33 348 177c62 115 45 224 -94 224
c-138 0 -301 -101 -400 -227c-51 -61 -60 -116 -76 -116c-8 0 -17 9 -10 41c44 203 298 379 499 383z" />
    <glyph glyph-name="Q" unicode="Q" horiz-adv-x="713" 
d="M806 -61c0 -9 -5 -23 -17 -38c-67 -77 -177 -83 -265 -51c-64 24 -111 77 -175 101c-55 -19 -108 -30 -164 -27c-45 3 -147 28 -97 102c29 45 93 60 141 60c49 1 97 -9 144 -28c143 65 269 199 298 349c27 127 -58 214 -184 227c-119 8 -242 -81 -290 -211
c-43 -105 -21 -227 65 -281c17 -12 31 -17 28 -28c-3 -8 -20 -18 -49 -17c-136 4 -193 208 -138 343c64 164 231 305 413 292c161 -8 294 -141 254 -323c-29 -160 -152 -314 -303 -404c51 -13 170 -151 295 -79c19 11 29 27 37 26c4 -1 6 -5 7 -13z" />
    <glyph glyph-name="R" unicode="R" horiz-adv-x="488" 
d="M640 -38c3 -7 -8 -19 -28 -31c-21 -12 -53 -24 -92 -23c-136 3 -226 169 -255 286c-28 -7 -55 -11 -83 -8c-22 -67 -41 -140 -103 -196c-19 -19 -45 -29 -62 -28c-29 0 -20 18 -4 38c51 57 73 155 92 225c-29 42 -22 120 30 164c4 37 7 73 10 112
c-37 -47 -51 -90 -68 -90c-9 0 -13 11 -12 33c4 64 44 124 96 179c9 45 24 80 43 83c9 1 16 -9 23 -30c71 47 149 71 228 63c95 -11 166 -76 163 -179c-8 -142 -125 -271 -265 -335c35 -82 85 -223 189 -250c45 -13 96 2 98 -13zM204 273c7 -1 17 -1 29 0
c-7 12 -11 30 -22 38c-3 -12 -4 -25 -7 -38zM225 412c53 -16 75 -58 99 -112c92 40 201 136 204 244c3 60 -37 102 -101 109c-65 5 -127 -21 -191 -64c1 -57 -4 -116 -11 -177z" />
    <glyph glyph-name="S" unicode="S" horiz-adv-x="465" 
d="M494 195c-27 -120 -171 -193 -317 -193c-98 0 -148 77 -135 178c5 27 13 42 24 43c8 1 14 -12 21 -32c13 -48 40 -98 107 -98c76 0 191 33 207 113c7 33 -3 57 -31 74c-92 37 -231 43 -247 166c-21 148 129 274 294 274c93 0 183 -71 161 -171c-7 -28 -18 -43 -26 -43
c-18 0 -13 58 -58 93c-21 19 -54 30 -91 30c-77 0 -188 -59 -183 -151c20 -104 176 -79 249 -152c35 -35 36 -83 25 -131z" />
    <glyph glyph-name="T" unicode="T" horiz-adv-x="326" 
d="M862 721c4 -17 -50 -53 -130 -78c-89 -29 -180 -38 -307 -41c-16 -148 -75 -408 -168 -547c-21 -32 -102 -122 -110 -82c-7 14 25 84 38 107c64 139 115 324 162 523c-72 3 -144 11 -203 20c-72 11 -122 24 -118 43c4 20 61 32 138 39c188 11 370 -3 566 18
c75 8 127 16 132 -2z" />
    <glyph glyph-name="U" unicode="U" horiz-adv-x="520" 
d="M290 119c78 0 127 103 156 178c48 130 62 265 126 396c5 11 39 68 58 60c7 -7 0 -27 -7 -67c-40 -224 -54 -684 -378 -684c-281 0 -132 452 -44 647c21 41 37 64 48 63s10 -26 3 -69c-19 -124 -58 -248 -61 -387c-3 -76 7 -137 99 -137z" />
    <glyph glyph-name="V" unicode="V" horiz-adv-x="433" 
d="M656 775c8 -5 -1 -29 -16 -69c-58 -152 -293 -670 -434 -701c-86 -22 -121 62 -132 137c-16 150 10 362 74 526c17 43 34 66 45 65s12 -25 9 -66c-8 -178 -65 -390 7 -542c160 152 236 420 384 600c31 39 56 57 63 50z" />
    <glyph glyph-name="W" unicode="W" horiz-adv-x="838" 
d="M1048 780c5 -8 1 -27 -18 -46c-183 -188 -131 -740 -432 -740c-148 0 -162 192 -157 313c-44 -113 -112 -305 -242 -305c-112 0 -118 195 -115 294c4 97 21 205 46 292s58 148 79 145s24 -59 11 -142c-28 -178 -43 -462 10 -462c48 0 146 321 161 356c17 43 33 84 60 129
c24 39 60 97 113 81c45 -19 37 -68 26 -124c-12 -78 -94 -459 38 -459c93 0 151 400 275 568c31 43 66 74 93 90c29 16 46 19 52 10z" />
    <glyph glyph-name="X" unicode="X" horiz-adv-x="647" 
d="M667 -5c13 -10 75 -41 70 -63c-3 -11 -14 -20 -35 -25c-63 -15 -118 4 -165 52c-87 87 -146 232 -189 341c-103 -72 -193 -156 -297 -241c-43 -35 -78 -60 -94 -49c-17 11 -4 50 31 101c75 112 191 199 314 287c-40 80 -87 152 -143 236c-27 40 -46 71 -31 90
s58 12 102 -19c84 -53 134 -144 180 -232c121 79 230 155 343 251c36 30 83 54 97 42c16 -12 -1 -52 -38 -100c-93 -119 -228 -203 -356 -291c58 -130 101 -278 211 -380z" />
    <glyph glyph-name="Z" unicode="Z" horiz-adv-x="766" 
d="M849 31c7 -7 -10 -31 -50 -51c-151 -80 -396 -34 -538 -5c-55 11 -149 28 -197 55c-17 11 -29 28 -30 53c3 95 175 145 248 179c135 57 278 115 406 207c39 29 96 77 93 127c-3 31 -37 33 -68 32c-126 -4 -342 -64 -431 -19c-33 17 -43 38 -35 46c8 11 26 6 57 7
c134 3 286 74 428 82c126 5 219 -82 147 -221c-95 -198 -461 -307 -663 -410c164 -40 388 -100 576 -81c32 3 50 7 57 -1z" />
    <glyph glyph-name="Y" unicode="Y" horiz-adv-x="644" 
d="M666 277c-64 -172 -93 -500 -408 -577c-87 -21 -137 7 -132 29c4 19 54 27 122 54c109 33 217 152 262 323c-43 -57 -133 -103 -222 -103c-173 0 -266 109 -197 297c85 239 194 400 235 400s-37 -185 -112 -389c-61 -157 25 -202 111 -202c111 0 207 129 250 289
c20 73 68 300 174 300c57 0 -23 -260 -83 -421z" />
    <glyph glyph-name="t" unicode="t" horiz-adv-x="247" 
d="M244 423c-9 -21 -126 -390 -56 -359c14 6 53 50 63 50c7 -3 12 -17 1 -44c-16 -44 -64 -86 -114 -78c-123 24 -16 317 7 410c-32 -5 -57 15 -46 42c9 31 44 38 79 54c23 61 43 124 70 187c9 25 17 38 24 39c10 2 17 -10 20 -35c7 -52 -7 -114 -22 -170c23 4 43 7 63 6
c35 -3 57 -14 54 -31c-5 -17 -26 -28 -57 -40c-24 -11 -55 -22 -86 -31z" />
    <glyph glyph-name="h" unicode="h" horiz-adv-x="387" 
d="M376 79c-5 -21 -7 -36 -8 -47s1 -20 -4 -28c-7 -14 -30 -5 -35 0c-56 40 -18 197 -2 256c8 31 41 140 -4 74c-28 -39 -52 -84 -79 -127c-48 -83 -95 -223 -159 -207c-35 5 -35 44 -30 73c34 167 97 349 142 514c15 55 33 115 48 162c8 26 16 72 38 84
c28 18 35 -72 35 -80c-3 -89 -64 -284 -99 -420c43 60 97 151 174 140c63 -8 53 -94 43 -141c-20 -96 -45 -184 -60 -253z" />
    <glyph glyph-name="e" unicode="e" horiz-adv-x="306" 
d="M317 115c7 -3 3 -25 -26 -57c-40 -43 -91 -59 -148 -59c-232 0 -32 500 161 500c95 0 74 -110 45 -181c-31 -75 -121 -170 -208 -189c0 -57 73 -70 125 -39c27 15 43 29 51 25zM271 404c-36 -26 -91 -96 -115 -189c154 99 126 197 115 189z" />
    <glyph glyph-name="zero" unicode="0" horiz-adv-x="491" 
d="M457 698c148 12 122 -237 90 -342c-39 -134 -155 -356 -327 -356c-184 -8 -154 254 -110 386c33 100 118 273 244 297c20 4 42 5 59 -3c7 7 19 15 44 18zM453 365c24 78 64 246 -16 291c3 -13 -35 -18 -43 -18c-97 -24 -159 -168 -191 -263c-20 -69 -75 -279 36 -279
c112 5 185 177 214 269z" />
    <glyph glyph-name="one" unicode="1" horiz-adv-x="293" 
d="M349 704c51 -3 47 -59 39 -101c-40 -137 -82 -272 -122 -420c-24 -85 -61 -192 -95 -192c-37 0 -25 113 -1 197c40 145 84 287 128 435c-14 -3 -52 -11 -59 4c-18 37 79 80 110 77z" />
    <glyph glyph-name="two" unicode="2" horiz-adv-x="575" 
d="M564 76c-3 -65 -229 -72 -437 -72c-45 0 -89 23 -76 84c10 47 118 106 163 133c102 59 266 142 303 269c48 159 -175 124 -267 44c-60 -49 -83 -109 -101 -106c-8 0 -13 16 -6 43c33 151 232 260 370 220c88 -24 127 -111 98 -209c-54 -186 -259 -274 -412 -373
c32 -3 61 -13 227 -13c81 0 138 -3 138 -20z" />
    <glyph glyph-name="three" unicode="3" horiz-adv-x="536" 
d="M581 253c8 -144 -197 -254 -329 -254c-81 -3 -166 33 -205 99c-11 21 -13 35 -6 43c16 14 55 -21 118 -39c32 -11 69 -15 109 -12c66 5 204 54 215 139c-3 68 -142 68 -195 76c-54 -3 -62 -8 -75 11c-22 33 -1 61 26 69c80 13 222 98 233 176c8 61 -89 68 -162 39
c-68 -29 -107 -65 -121 -58c-8 3 -6 19 10 46c51 83 168 118 251 107c57 -8 118 -44 121 -110c3 -78 -69 -146 -137 -198c71 -16 139 -53 147 -134z" />
    <glyph glyph-name="four" unicode="4" horiz-adv-x="514" 
d="M543 253c-3 -15 -27 -27 -62 -36c-16 -53 -22 -105 -37 -161c-8 -32 -15 -57 -32 -65c-17 -7 -37 13 -44 49c-12 48 -3 106 12 159c-60 -5 -121 -6 -182 2c-41 3 -90 17 -109 54c-29 74 68 195 124 266c83 109 149 189 173 176c13 -7 8 -40 -12 -83
c-28 -63 -241 -306 -143 -318c32 -4 67 -4 103 -4c23 0 47 0 70 -1c24 80 53 159 81 236c11 36 72 169 101 169c43 0 2 -154 -9 -183c-28 -77 -55 -154 -78 -230c28 -7 47 -15 44 -30z" />
    <glyph glyph-name="five" unicode="5" horiz-adv-x="591" 
d="M425 588c-40 -1 -82 3 -121 10c-7 -31 -14 -59 -25 -94c205 37 378 -36 335 -237c-27 -125 -159 -267 -340 -267c-143 0 -236 102 -175 226c12 24 27 35 35 32s9 -16 8 -37c0 -106 80 -126 171 -126c100 0 206 72 206 187c3 93 -72 142 -166 139c-47 -4 -94 -17 -130 -26
c-36 -11 -50 2 -69 35c-4 9 8 21 27 52c24 43 41 85 68 132c-35 15 -54 34 -46 46c10 18 71 12 86 12c7 5 15 8 19 0c144 -16 213 1 327 17c44 7 76 17 83 5c4 -6 -1 -16 -15 -29c-68 -63 -190 -74 -278 -77z" />
    <glyph glyph-name="six" unicode="6" horiz-adv-x="495" 
d="M431 475c88 -37 136 -138 112 -247c-32 -124 -154 -239 -292 -247c-164 -16 -221 137 -183 293c32 136 190 374 339 422c31 11 47 6 47 -2c0 -9 -11 -19 -30 -36c-106 -93 -225 -250 -260 -387c-22 -84 -13 -202 101 -194c93 8 188 91 185 191c0 59 -37 138 -108 141
c-28 3 -57 -9 -80 -18s-39 -17 -44 -10c-5 5 0 21 23 44c52 56 130 71 190 50z" />
    <glyph glyph-name="seven" unicode="7" horiz-adv-x="463" 
d="M556 704c45 -1 79 -15 74 -68c-16 -69 -171 -271 -249 -400c-36 -59 -74 -123 -107 -174c-35 -51 -62 -88 -78 -84s-10 47 10 104c50 146 206 353 313 526c-92 3 -198 -8 -286 8c-57 9 -92 31 -84 48c7 17 47 23 102 26c137 5 230 15 305 14z" />
    <glyph glyph-name="eight" unicode="8" horiz-adv-x="483" 
d="M364 419c75 -48 170 -102 146 -218c-24 -120 -113 -198 -266 -198c-231 0 -221 284 -23 399c-33 22 -38 75 -30 120c27 93 121 173 223 186c114 16 181 -55 151 -173c-16 -51 -40 -89 -59 -114c-21 -26 -35 -37 -42 -34c-8 3 -4 20 5 47c8 27 21 62 26 101
c4 33 1 68 -32 83c-69 29 -228 -73 -173 -144c16 -19 43 -36 74 -55zM421 204c21 104 -112 127 -179 178c-97 -93 -108 -280 38 -280c72 0 126 30 141 102z" />
    <glyph glyph-name="nine" unicode="9" horiz-adv-x="475" 
d="M541 445c-24 -144 -170 -484 -378 -440c-39 9 -69 35 -85 71c-12 23 -12 40 -5 45c7 7 20 -3 39 -15c19 -13 45 -31 76 -32c112 -8 209 200 245 295c-61 -69 -165 -136 -248 -99s-89 153 -44 246c51 107 182 210 299 199c41 -5 81 -27 93 -66c11 -27 6 -45 -2 -48
c-9 -4 -18 6 -34 21c-17 13 -41 26 -74 23c-76 -5 -164 -75 -200 -152c-22 -43 -31 -118 13 -139c74 -35 172 109 204 167c13 26 44 62 75 49c43 -19 34 -80 26 -125z" />
    <glyph glyph-name="period" unicode="." horiz-adv-x="196" 
d="M106 97c29 3 41 -30 33 -56c-11 -33 -53 -50 -82 -37c-13 7 -18 18 -17 32c3 27 38 58 66 61z" />
    <glyph glyph-name="colon" unicode=":" horiz-adv-x="189" 
d="M138 336c-13 7 -18 18 -17 32c3 27 38 58 66 61s41 -30 33 -56c-11 -33 -53 -50 -82 -37zM116 97c29 3 41 -30 33 -56c-11 -33 -53 -50 -82 -37c-13 7 -18 18 -17 32c3 27 38 58 66 61z" />
    <glyph glyph-name="comma" unicode="," horiz-adv-x="150" 
d="M155 82c0 -67 -43 -151 -118 -186c-27 -13 -49 -12 -52 1s9 27 22 46c35 41 57 57 86 137c10 21 59 28 62 2z" />
    <glyph glyph-name="semicolon" unicode=";" horiz-adv-x="225" 
d="M205 429c28 3 41 -30 33 -56c-11 -33 -53 -50 -82 -37c-13 7 -18 18 -17 32c3 27 38 58 66 61zM161 82c0 -67 -43 -151 -118 -186c-27 -13 -49 -12 -52 1s9 27 22 46c35 41 57 57 86 137c10 21 59 28 62 2z" />
    <glyph glyph-name="slash" unicode="/" horiz-adv-x="274" 
d="M404 644c-82 -202 -208 -370 -314 -571c-37 -63 -67 -107 -82 -104c-13 3 -6 53 21 121c76 199 193 391 340 564c13 17 23 28 31 27c7 -1 11 -14 4 -37z" />
    <glyph glyph-name="tilde" unicode="&#x2dc;" horiz-adv-x="336" 
d="M296 614c27 -19 67 -10 90 17c9 11 17 20 24 20c17 -17 -21 -73 -54 -84c-70 -27 -93 39 -144 20c-31 -13 -41 -44 -54 -44c-7 3 -10 18 1 37c32 56 90 65 137 34z" />
    <glyph glyph-name="bullet" unicode="&#x2022;" horiz-adv-x="323" 
d="M249 413c57 3 82 -59 66 -110c-21 -64 -105 -103 -162 -73c-25 15 -36 36 -34 63c8 55 74 115 130 120z" />
    <glyph glyph-name="equal" unicode="=" horiz-adv-x="692" 
d="M356 419h205c55 0 123 -14 112 -41c-10 -28 -85 -41 -141 -41h-205c-55 0 -122 13 -112 41c11 28 85 41 141 41zM295 218h205c55 0 123 -14 112 -41c-10 -28 -85 -41 -141 -41h-205c-55 0 -122 13 -112 41c11 28 84 41 141 41z" />
    <glyph glyph-name="backslash" unicode="\" horiz-adv-x="341" 
d="M224 73c-21 202 -75 369 -72 571c4 23 13 36 20 37c8 1 14 -10 21 -27c72 -173 108 -365 100 -564c-4 -68 -15 -118 -31 -121s-27 41 -38 104z" />
    <glyph glyph-name="underscore" unicode="_" horiz-adv-x="611" 
d="M165 -59h255c55 0 123 -16 112 -44c-10 -28 -87 -44 -142 -44h-255c-56 0 -121 16 -111 44c11 28 84 44 141 44z" />
    <glyph glyph-name="dollar" unicode="$" horiz-adv-x="476" 
d="M454 309c31 -31 32 -76 23 -119c-21 -93 -118 -156 -230 -172c-29 -69 -57 -116 -72 -113c-13 3 -7 46 5 109c-84 3 -126 74 -115 162c5 25 13 38 22 39c7 1 13 -10 20 -29c11 -41 42 -74 97 -79l44 191c-53 23 -98 55 -109 120c-16 115 78 212 197 241c9 31 20 62 31 91
c13 23 23 34 31 32c7 -3 8 -16 7 -37c-1 -25 -3 -51 -6 -77h7c86 0 167 -65 148 -156c-5 -25 -17 -39 -24 -39c-15 0 -15 43 -55 75c-20 16 -49 27 -82 27h-3c-9 -69 -22 -142 -39 -214c39 -12 76 -25 103 -52zM238 448c4 -21 14 -38 31 -51c11 53 22 106 37 157
c-41 -20 -72 -55 -68 -106zM282 111c51 8 98 28 109 79c6 30 -4 52 -29 67l-32 12c-15 -57 -31 -109 -48 -158z" />
    <glyph glyph-name="bar" unicode="|" horiz-adv-x="179" 
d="M22 -48c64 225 100 501 183 718c13 23 23 34 31 32c7 -3 8 -16 7 -37c-8 -214 -71 -512 -156 -722c-31 -72 -59 -121 -74 -118c-13 3 -6 56 9 127z" />
    <glyph glyph-name="quotedbl" unicode="&#x22;" horiz-adv-x="300" 
d="M190 656c10 21 57 28 57 2c3 -49 -25 -133 -67 -186c-15 -15 -46 -14 -49 1c-3 13 7 26 14 46c11 29 25 73 45 137zM386 658c3 -49 -25 -133 -67 -186c-15 -15 -46 -14 -49 1c-3 13 7 26 14 46c11 29 25 73 45 137c10 21 57 28 57 2z" />
    <glyph glyph-name="quotedblbase" unicode="&#x201e;" horiz-adv-x="345" 
d="M245 80c11 21 54 28 57 2c3 -60 -44 -154 -111 -186c-25 -13 -45 -14 -48 1c-4 13 8 27 21 46c36 43 58 86 81 137zM113 80c11 21 54 28 57 2c3 -60 -44 -154 -111 -186c-25 -13 -45 -14 -48 1c-4 13 8 27 21 46c36 43 58 86 81 137z" />
    <glyph glyph-name="quotedblright" unicode="&#x201d;" horiz-adv-x="317" 
d="M225 656c10 21 57 28 57 2c3 -59 -44 -154 -110 -186c-27 -13 -46 -14 -49 1c-3 13 7 27 22 46c35 43 57 86 80 137zM360 656c10 21 57 28 57 2c3 -59 -44 -154 -110 -186c-27 -13 -46 -14 -49 1c-3 13 7 27 22 46c35 43 57 86 80 137z" />
    <glyph glyph-name="quotedblleft" unicode="&#x201c;" horiz-adv-x="327" 
d="M198 481c-11 -22 -56 -27 -58 -2c-3 60 44 154 111 186c27 13 46 14 49 -1c3 -13 -7 -27 -22 -46c-35 -43 -57 -86 -80 -137zM329 481c-11 -22 -56 -27 -58 -2c-3 60 44 154 111 186c27 13 46 14 49 -1c3 -13 -7 -27 -22 -46c-35 -43 -57 -86 -80 -137z" />
    <glyph glyph-name="less" unicode="&#x3c;" horiz-adv-x="496" 
d="M242 270l104 -79c78 -48 147 -120 128 -144s-124 28 -200 77l-163 103c-24 7 -26 31 -23 56c0 15 32 26 243 125c100 46 227 94 235 69c8 -24 -96 -93 -193 -138z" />
    <glyph glyph-name="greater" unicode="&#x3e;" horiz-adv-x="516" 
d="M58 47c-8 24 93 96 190 144l138 79l-101 69c-80 45 -154 113 -135 138c17 26 126 -24 205 -69c168 -98 197 -111 191 -125c-9 -25 -20 -49 -47 -56l-207 -103c-99 -48 -226 -102 -234 -77z" />
    <glyph glyph-name="exclam" unicode="!" horiz-adv-x="222" 
d="M159 97c29 3 41 -30 33 -56c-11 -33 -53 -50 -82 -37c-13 7 -18 18 -17 32c3 27 38 58 66 61zM307 697c26 -3 20 -71 4 -125c-21 -82 -53 -206 -72 -287c-13 -53 -40 -122 -67 -122c-29 0 -33 71 -20 124c19 83 52 207 73 290c16 53 53 123 82 120z" />
    <glyph glyph-name="numbersign" unicode="#" horiz-adv-x="502" 
d="M515 454c37 -7 67 -17 60 -36c-7 -20 -47 -32 -90 -36c-19 -43 -39 -84 -59 -127c49 -3 97 -15 89 -38c-11 -25 -70 -36 -124 -39l-33 -82c-27 -56 -48 -97 -61 -94s-12 48 3 109c7 23 13 44 18 67h-114l-33 -82c-27 -56 -48 -97 -61 -94s-12 48 3 109c7 23 12 46 19 69
c-44 4 -83 14 -75 37c9 23 53 32 99 37c15 43 33 84 52 125c-50 3 -99 15 -91 39c10 26 75 39 131 39c31 56 63 110 100 162c11 15 17 25 25 24c7 -1 10 -12 8 -33c-15 -53 -32 -104 -52 -153h106c31 56 64 110 100 162c11 15 18 25 25 24c8 -1 11 -12 9 -33
c-15 -55 -33 -105 -54 -156zM239 256h106c15 41 32 83 51 123h-101z" />
    <glyph glyph-name="asciitilde" unicode="~" horiz-adv-x="530" 
d="M461 294c45 8 80 63 109 66c13 -1 19 -25 0 -60c-156 -212 -307 68 -431 -44c-20 -16 -43 -39 -56 -35c-21 40 50 123 114 136c115 25 167 -78 264 -63z" />
    <glyph glyph-name="question" unicode="?" horiz-adv-x="397" 
d="M205 97c29 3 41 -30 33 -56c-11 -33 -53 -50 -82 -37c-13 7 -18 18 -17 32c3 27 38 58 66 61zM512 576c-8 -139 -175 -194 -248 -344c-19 -39 -34 -67 -49 -68c-13 -1 -26 31 -14 82c36 148 214 218 214 309c3 101 -149 90 -214 12c-31 -27 -43 -56 -58 -56
c-7 0 -11 8 -11 24c3 80 100 163 176 176c100 16 207 -30 204 -135z" />
    <glyph glyph-name="hyphen" unicode="-" horiz-adv-x="371" 
d="M177 309h136c29 0 85 -11 79 -39c-5 -28 -66 -39 -95 -39h-136c-30 0 -84 11 -79 39c6 28 66 39 95 39z" />
    <glyph glyph-name="parenleft" unicode="(" horiz-adv-x="284" 
d="M331 615c-128 -259 -183 -393 -138 -654c7 -37 11 -65 -2 -74c-13 -8 -47 9 -66 44c-105 178 -5 510 145 708c29 37 69 59 80 52s0 -37 -19 -76z" />
    <glyph glyph-name="parenright" unicode=")" horiz-adv-x="272" 
d="M68 -39c157 262 156 393 140 654c-1 39 0 69 13 76c15 7 45 -15 58 -52c69 -197 23 -530 -155 -708c-35 -35 -75 -52 -86 -44c-9 9 7 37 30 74z" />
    <glyph glyph-name="plus" unicode="+" horiz-adv-x="560" 
d="M404 344c133 0 201 -12 194 -44s-79 -45 -215 -45c-32 -140 -61 -210 -93 -209s-27 72 4 209c-143 0 -211 13 -204 45s80 44 225 44c32 141 61 211 93 210s28 -71 -4 -210z" />
    <glyph glyph-name="quotesingle" unicode="'" horiz-adv-x="203" 
d="M212 656c10 21 57 28 57 2c3 -49 -25 -133 -67 -186c-15 -15 -46 -14 -49 1c-3 13 7 26 14 46c11 29 25 73 45 137z" />
    <glyph glyph-name="asterisk" unicode="*" horiz-adv-x="474" 
d="M554 540c-7 -28 -64 -39 -144 -39c25 -68 33 -122 5 -137c-27 -13 -56 30 -80 99c-56 -69 -101 -113 -123 -99c-21 15 9 69 64 137c-80 0 -133 11 -128 39c7 28 65 39 145 39c-27 68 -33 122 -6 137c28 13 54 -30 81 -99c53 69 101 112 122 99c21 -15 -10 -69 -63 -137
c79 0 133 -11 127 -39z" />
    <glyph glyph-name="bracketleft" unicode="[" horiz-adv-x="251" 
d="M147 -40c43 -11 71 -22 67 -37s-38 -20 -85 -23c-56 0 -79 0 -66 67c77 381 128 621 141 665c8 30 52 39 78 36c45 -5 78 -7 77 -22c-3 -15 -36 -26 -83 -37l-33 -151c-23 -104 -57 -263 -105 -491c-1 -8 2 -4 9 -7z" />
    <glyph glyph-name="bracketright" unicode="]" horiz-adv-x="292" 
d="M37 -77c3 15 36 26 83 37c7 3 10 -1 11 7c48 228 81 387 104 491c13 61 23 112 32 151c-43 11 -71 22 -67 37c5 15 38 17 85 22c28 3 67 -6 64 -36c-8 -44 -58 -283 -143 -665c-16 -67 -38 -67 -94 -67c-44 3 -78 8 -75 23z" />
    <glyph glyph-name="endash" unicode="&#x2013;" horiz-adv-x="544" 
d="M187 290h285c29 0 85 -11 79 -39c-5 -28 -66 -39 -95 -39h-285c-30 0 -84 11 -79 39c6 28 66 39 95 39z" />
    <glyph glyph-name="emdash" unicode="&#x2014;" horiz-adv-x="1004" 
d="M192 290h746c29 0 85 -11 79 -39c-5 -28 -66 -39 -95 -39h-746c-30 0 -84 11 -79 39c6 28 66 39 95 39z" />
    <glyph glyph-name="braceleft" unicode="{" horiz-adv-x="269" 
d="M238 -84c3 -13 -17 -30 -52 -37c-41 -7 -81 8 -98 43c-45 82 33 186 49 279c3 19 1 34 -6 50c-11 15 -24 26 -17 41c0 15 18 25 34 40c15 15 20 24 27 47c19 65 7 123 23 192c13 67 90 131 162 118c29 -7 42 -24 34 -37s-26 -16 -47 -23c-22 -6 -40 -15 -53 -28
c-44 -36 -16 -130 -43 -229c-9 -31 -30 -61 -59 -80c23 -19 31 -52 24 -85c-10 -76 -87 -168 -55 -238c6 -13 19 -23 39 -29c17 -7 35 -9 38 -24z" />
    <glyph glyph-name="braceright" unicode="}" horiz-adv-x="303" 
d="M63 -121c-32 7 -44 24 -36 37c8 15 27 17 48 24c22 6 39 16 51 29c62 70 24 162 45 238c11 33 31 66 62 85c-23 19 -30 49 -25 80c14 100 80 191 53 229c-7 12 -21 21 -41 28c-17 7 -34 10 -37 23s17 30 50 37c80 13 126 -50 112 -118c-16 -68 -51 -128 -59 -192
c-3 -23 -2 -32 7 -47c11 -15 25 -25 18 -40c0 -15 -19 -26 -35 -41c-15 -16 -21 -31 -28 -50c-24 -93 11 -197 -69 -279c-31 -35 -79 -50 -116 -43z" />
    <glyph glyph-name="quoteleft" unicode="&#x2018;" horiz-adv-x="195" 
d="M191 481c-11 -22 -56 -27 -58 -2c-3 60 44 154 111 186c27 13 46 14 49 -1c3 -13 -7 -27 -22 -46c-35 -43 -57 -86 -80 -137z" />
    <glyph glyph-name="quoteright" unicode="&#x2019;" horiz-adv-x="215" 
d="M252 656c10 21 57 28 57 2c3 -59 -44 -154 -110 -186c-27 -13 -46 -14 -49 1c-3 13 7 27 22 46c35 43 57 86 80 137z" />
    <glyph glyph-name="at" unicode="@" horiz-adv-x="779" 
d="M474 591c244 48 377 -90 305 -345c-29 -85 -101 -195 -208 -195c-37 0 -65 21 -72 58c-29 -24 -53 -46 -92 -57c-99 -24 -171 30 -160 131c16 128 179 256 305 240c45 -4 68 -22 61 -34c-7 -13 -35 -12 -70 -19c-83 -16 -201 -78 -214 -181c-7 -47 24 -71 84 -56
c51 16 62 49 95 93c13 35 28 61 40 84c19 31 46 48 51 47c7 -3 4 -22 -7 -54c-9 -32 -19 -78 -27 -127c-6 -25 -1 -64 32 -61c67 0 100 84 113 140c45 194 -28 294 -235 256c-153 -29 -261 -159 -293 -308c-21 -136 8 -251 156 -259c48 -3 95 5 127 10c33 5 53 8 54 1
s-17 -17 -52 -32c-33 -13 -81 -29 -141 -32c-170 -13 -267 139 -230 311c37 176 183 349 378 389z" />
    <glyph glyph-name="exclamdown" unicode="&#xa1;" horiz-adv-x="213" 
d="M200 388c-36 -3 -43 30 -35 56c11 33 53 50 82 37c13 -7 18 -18 17 -32c-6 -28 -28 -61 -64 -61zM50 -212c-27 3 -18 71 -4 125c21 82 53 206 72 287c13 53 40 122 67 122c29 0 34 -71 21 -124c-21 -83 -50 -208 -74 -290c-16 -53 -53 -123 -82 -120z" />
    <glyph glyph-name="cent" unicode="&#xa2;" horiz-adv-x="471" 
d="M541 491c7 -31 -3 -48 -12 -51s-17 9 -32 24c-15 13 -37 27 -68 30h-1c-15 -107 -41 -219 -76 -320c27 5 50 12 69 19c25 9 42 14 47 7c6 -7 -4 -22 -29 -45c-35 -31 -74 -51 -117 -61c-6 -14 -52 -120 -74 -117c-19 3 2 96 7 111c-146 16 -171 160 -101 299
c51 84 118 153 218 184c3 6 35 122 60 114c14 -6 4 -78 4 -111c48 -7 90 -34 105 -83zM242 354c-40 -80 -31 -156 36 -177c23 95 41 194 65 291c-39 -27 -73 -69 -101 -114z" />
    <glyph glyph-name="sterling" unicode="&#xa3;" horiz-adv-x="471" 
d="M169 70c131 0 284 -12 279 -39c-5 -28 -177 -39 -308 -39c-35 0 -92 15 -87 60c3 41 58 60 89 84c67 48 80 92 67 162c-59 0 -103 8 -99 29c3 21 52 29 88 29c-15 56 2 127 45 187c51 73 145 103 225 95c36 -5 107 -30 82 -58c-11 -11 -46 3 -98 -2
c-51 -4 -112 -21 -149 -70c-35 -49 -33 -104 -22 -152c125 0 170 -8 166 -29s-52 -29 -155 -29c7 -49 -3 -103 -39 -152c-23 -29 -51 -55 -84 -76z" />
    <glyph glyph-name="yen" unicode="&#xa5;" horiz-adv-x="475" 
d="M497 306c-8 -35 -91 -24 -171 -32c0 -3 0 -3 -11 -55c109 0 161 -10 157 -29c-5 -19 -61 -29 -169 -29c-23 -107 -43 -155 -70 -155s-27 48 -4 155c-108 0 -162 8 -157 29c4 19 60 29 169 29c11 52 12 55 12 58c-109 0 -161 10 -156 29c4 21 62 29 138 29
c-20 44 -118 276 -68 299c27 13 70 -76 99 -148c15 -39 29 -78 48 -121c37 37 210 287 250 263c36 -24 -144 -245 -184 -293c68 0 120 -8 117 -29z" />
    <glyph glyph-name="section" unicode="&#xa7;" horiz-adv-x="479" 
d="M494 308c-3 -45 -42 -112 -109 -133c69 -69 33 -180 -87 -223c-61 -24 -127 -15 -166 8c-40 23 -53 52 -42 63c12 11 37 0 73 -7c35 -7 84 -7 123 8c24 8 74 45 53 72c-44 81 -245 98 -237 221c5 57 49 107 109 132c-31 29 -47 68 -28 116c19 51 66 88 118 108
c60 24 128 20 168 -4c7 -5 62 -49 37 -69c-14 -8 -34 8 -69 13c-41 8 -157 2 -181 -61c-5 -24 9 -36 26 -51c70 -54 212 -79 212 -193zM367 190c162 109 -62 185 -137 244c-56 -37 -81 -91 -30 -140c48 -43 111 -67 167 -104z" />
    <glyph glyph-name="dieresis" unicode="&#xa8;" horiz-adv-x="353" 
d="M226 675c29 3 41 -30 33 -56c-11 -33 -53 -50 -82 -37c-13 7 -18 18 -17 32c3 27 38 58 66 61zM401 675c29 3 41 -30 33 -56c-11 -33 -53 -50 -82 -37c-13 7 -18 18 -17 32c3 27 38 58 66 61z" />
    <glyph glyph-name="copyright" unicode="&#xa9;" horiz-adv-x="659" 
d="M421 497c53 11 105 -6 121 -57c4 -23 -2 -36 -9 -37s-11 6 -22 17s-27 19 -50 22c-54 3 -102 -48 -134 -101c-34 -69 -19 -135 62 -132c24 3 47 9 66 16c20 7 31 9 34 5c5 -5 -1 -16 -20 -32c-41 -36 -94 -54 -143 -47c-97 18 -111 117 -63 214c36 60 86 111 158 132z
M707 466c23 -56 20 -125 -4 -193c-64 -173 -275 -305 -448 -260c-108 26 -183 119 -186 237c-5 171 150 363 343 392c68 11 134 -1 185 -37c43 -32 56 -69 47 -76c-11 -9 -37 13 -80 30c-41 19 -100 27 -155 18c-142 -21 -278 -167 -273 -312c3 -90 60 -164 148 -188
c129 -32 300 57 356 207c20 52 24 114 16 159c-8 47 -23 77 -12 86c9 8 40 -12 63 -63z" />
    <glyph glyph-name="registered" unicode="&#xae;" horiz-adv-x="424" 
d="M465 591c35 -86 -43 -209 -149 -241c-64 -20 -131 -3 -166 42c-37 45 -39 115 -6 176c32 59 97 109 162 117c51 11 125 -17 125 -61c-7 -4 -19 8 -42 17c-23 11 -55 14 -84 9c-52 -7 -104 -45 -129 -93c-27 -48 -25 -104 4 -140c27 -36 81 -50 132 -34
c85 24 139 119 126 195c-4 25 -14 42 -7 46c5 5 23 -6 34 -33zM271 599c46 8 121 -2 107 -62c-5 -21 -23 -33 -43 -42c11 -10 18 -22 20 -37c4 -15 0 -28 -7 -29s-12 5 -19 14c-15 17 -28 34 -51 41c-9 -3 3 34 10 34c15 5 44 2 54 20c11 29 -42 28 -59 28
c3 -20 -30 -150 -54 -145c-15 3 15 123 18 141c3 35 15 34 24 37z" />
    <glyph glyph-name="ordfeminine" unicode="&#xaa;" horiz-adv-x="304" 
d="M329 263c5 -8 13 -11 12 -18c-1 -5 -13 -12 -30 -8c-32 7 -46 45 -50 77c-23 -29 -56 -59 -91 -59c-86 0 -92 97 -63 171c27 67 101 157 188 157c61 0 91 -47 83 -87c-3 -17 -9 -25 -16 -25s-9 7 -14 18c-11 23 -28 39 -63 36c-52 -3 -99 -62 -120 -113
c-16 -40 -12 -94 20 -94c26 0 58 44 71 64c17 28 23 85 63 85c41 0 16 -70 10 -98c-7 -35 -16 -75 0 -106z" />
    <glyph glyph-name="guillemotleft" unicode="&#xab;" 
d="M154 245c18 -34 26 -46 39 -72c27 -47 37 -88 14 -104c-40 -30 -105 100 -121 130c-7 12 -14 28 -11 45c5 24 27 43 44 64c31 34 124 137 151 113c15 -15 -16 -68 -54 -106c-20 -23 -43 -45 -62 -70zM309 245c18 -34 26 -46 39 -72c27 -47 37 -88 14 -104
c-40 -30 -105 100 -121 130c-7 12 -14 28 -11 45c5 24 27 43 44 64c31 34 124 137 151 113c15 -15 -16 -68 -54 -106c-20 -23 -43 -45 -62 -70z" />
    <glyph glyph-name="guillemotright" unicode="&#xbb;" horiz-adv-x="423" 
d="M114 173l71 72c-9 25 -22 47 -34 70c-19 39 -29 91 -8 106c36 25 86 -80 103 -113c9 -21 21 -40 16 -64c-3 -17 -18 -33 -29 -45c-27 -31 -151 -160 -177 -130c-15 16 11 57 58 104zM271 173l71 72c-9 25 -22 47 -34 70c-19 39 -29 91 -8 106c36 25 86 -80 103 -113
c9 -21 21 -40 16 -64c-3 -17 -18 -33 -29 -45c-27 -31 -151 -160 -177 -130c-15 16 11 57 58 104z" />
    <glyph glyph-name="guilsinglright" unicode="&#x203a;" horiz-adv-x="252" 
d="M117 173l71 72c-9 25 -22 47 -34 70c-19 39 -29 91 -8 106c36 25 86 -80 103 -113c9 -21 21 -40 16 -64c-3 -17 -18 -33 -29 -45c-27 -31 -151 -160 -177 -130c-15 16 11 57 58 104z" />
    <glyph glyph-name="guilsinglleft" unicode="&#x2039;" horiz-adv-x="230" 
d="M144 245c18 -34 26 -46 39 -72c27 -47 37 -88 14 -104c-40 -30 -105 100 -121 130c-7 12 -14 28 -11 45c5 24 27 43 44 64c31 34 124 137 151 113c15 -15 -16 -68 -54 -106c-20 -23 -43 -45 -62 -70z" />
    <glyph glyph-name="plusminus" unicode="&#xb1;" horiz-adv-x="621" 
d="M145 67h343c30 0 84 -11 78 -39c-5 -28 -66 -39 -95 -39h-343c-30 0 -84 11 -79 39c6 28 67 39 96 39zM327 296c-143 0 -210 13 -203 45s79 44 224 44c33 141 62 211 94 210s28 -71 -5 -210c133 0 202 -12 195 -44s-80 -45 -216 -45c-31 -140 -60 -210 -92 -209
s-28 72 3 209z" />
    <glyph glyph-name="quotesinglbase" unicode="&#x201a;" horiz-adv-x="227" 
d="M188 82c0 -67 -43 -151 -118 -186c-27 -13 -50 -12 -53 1s8 27 23 46c35 41 57 57 86 137c10 21 59 28 62 2z" />
    <glyph glyph-name="circumflex" unicode="&#x2c6;" horiz-adv-x="293" 
d="M348 619c16 -30 26 -72 10 -82c-16 -11 -41 25 -56 53c-7 15 -13 31 -24 44c-13 -15 -27 -28 -42 -44c-26 -29 -65 -63 -78 -53c-12 10 15 53 44 82c23 26 60 73 89 73c33 0 44 -49 57 -73z" />
    <glyph glyph-name="acute" unicode="&#xb4;" horiz-adv-x="233" 
d="M260 663c35 43 134 41 72 -19c-32 -29 -109 -103 -150 -103c-30 0 62 100 78 122z" />
    <glyph glyph-name="periodcentered" unicode="&#xb7;" horiz-adv-x="144" 
d="M146 353c28 3 41 -30 33 -56c-11 -33 -53 -50 -82 -37c-13 7 -18 18 -17 32c3 27 38 58 66 61z" />
    <glyph glyph-name="ellipsis" unicode="&#x2026;" horiz-adv-x="588" 
d="M106 97c29 3 41 -30 33 -56c-11 -33 -53 -50 -82 -37c-13 7 -18 18 -17 32c3 27 38 58 66 61zM302 97c29 3 41 -30 33 -56c-11 -33 -53 -50 -82 -37c-13 7 -18 18 -17 32c3 27 38 58 66 61zM498 97c29 3 41 -30 33 -56c-11 -33 -53 -50 -82 -37c-13 7 -18 18 -17 32
c3 27 38 58 66 61z" />
    <glyph glyph-name="macron" unicode="&#xaf;" 
d="M258 633h146c16 0 86 -12 83 -26s-59 -30 -94 -30h-147c-20 0 -92 10 -87 28c3 18 69 28 99 28z" />
    <glyph glyph-name="cedilla" unicode="&#xb8;" horiz-adv-x="235" 
d="M136 2c11 0 4 -26 -16 -53c49 -8 59 -50 53 -80c-8 -30 -39 -70 -107 -70c-57 0 -72 41 -59 61c14 20 38 -15 71 -15c67 0 75 72 -24 72c-11 0 1 14 13 29c11 14 51 56 69 56z" />
    <glyph glyph-name="degree" unicode="&#xb0;" horiz-adv-x="331" 
d="M148 550c11 47 47 88 95 107c39 15 65 4 62 -4c-3 -11 -26 -15 -50 -31c-27 -16 -52 -45 -57 -72c-11 -44 24 -79 69 -79c42 0 93 35 101 79c7 27 -6 56 -25 72s-41 20 -38 31c1 8 30 19 63 4c41 -16 58 -60 49 -107c-16 -73 -86 -126 -161 -129c-69 0 -121 53 -108 129z
" />
    <glyph glyph-name="ordmasculine" unicode="&#xba;" horiz-adv-x="285" 
d="M371 510c-5 -82 -62 -190 -161 -187c-90 0 -119 74 -87 173c16 51 56 115 110 141c24 12 43 11 46 2c9 4 9 6 21 3c58 -10 74 -75 71 -132zM224 385c71 0 96 115 80 168c-9 29 -15 46 -36 61c-20 -23 -41 -43 -60 -71c-45 -64 -70 -158 16 -158z" />
    <glyph glyph-name="grave" unicode="`" horiz-adv-x="261" 
d="M172 644c-37 58 64 63 80 19c8 -21 56 -122 26 -122c-40 0 -87 73 -106 103z" />
    <glyph glyph-name="Euro" unicode="&#x20ac;" horiz-adv-x="527" 
d="M510 54c4 -12 -36 -45 -100 -61c-177 -46 -277 62 -285 226c-38 3 -75 22 -67 40c5 17 39 25 75 29c4 19 5 39 12 59c-36 3 -69 11 -62 30c5 19 45 36 84 40c59 144 211 268 372 247c11 0 100 -25 81 -52c-11 -12 -44 -4 -95 -9c-115 -12 -195 -69 -254 -184
c195 0 226 -21 218 -42c-8 -23 -47 -31 -243 -31c-4 -19 -8 -36 -11 -55c203 0 237 -11 229 -32c-8 -24 -49 -41 -236 -41c1 -116 68 -169 185 -164c52 3 92 13 97 0z" />
    <glyph glyph-name="percent" unicode="%" horiz-adv-x="805" 
d="M424 459c-24 -76 -80 -201 -197 -201c-124 0 -96 143 -69 218c19 56 69 155 145 168c12 3 25 3 36 -2c4 4 11 9 26 10c92 8 78 -134 59 -193zM356 464c14 44 45 139 -2 165c2 -7 -22 -11 -26 -11c-60 -13 -85 -95 -104 -148c-13 -40 -50 -148 17 -148c67 3 99 90 115 142
zM733 388c91 8 78 -134 59 -193c-24 -76 -80 -201 -197 -201c-124 0 -96 143 -69 218c19 56 68 155 145 168c12 3 25 3 36 -2c4 4 11 9 26 10zM724 200c14 44 45 139 -2 165c2 -7 -22 -11 -26 -11c-60 -13 -85 -95 -104 -148c-13 -40 -50 -148 17 -148c67 3 99 90 115 142z
M737 681c9 -1 8 -14 -3 -37c-117 -202 -273 -369 -414 -571c-48 -63 -86 -107 -101 -104c-13 3 -2 47 41 114c109 175 276 401 441 571c16 17 28 28 36 27z" />
    <glyph glyph-name="perthousand" unicode="&#x2030;" horiz-adv-x="1098" 
d="M408 459c-24 -76 -80 -201 -197 -201c-124 0 -96 143 -69 218c19 56 69 155 145 168c12 3 25 3 36 -2c4 4 11 9 26 10c92 8 78 -134 59 -193zM340 464c14 44 45 139 -2 165c2 -7 -22 -11 -26 -11c-60 -13 -85 -95 -104 -148c-13 -40 -50 -148 17 -148c67 3 99 90 115 142
zM717 388c91 8 78 -134 59 -193c-24 -76 -80 -201 -197 -201c-124 0 -96 143 -69 218c19 56 68 155 145 168c12 3 25 3 36 -2c4 4 11 9 26 10zM708 200c14 44 45 139 -2 165c2 -7 -22 -11 -26 -11c-60 -13 -85 -95 -104 -148c-13 -40 -50 -148 17 -148c67 3 99 90 115 142z
M1029 388c91 8 78 -134 59 -193c-24 -76 -80 -201 -197 -201c-124 0 -96 143 -69 218c19 56 68 155 145 168c12 3 25 3 36 -2c4 4 11 9 26 10zM1020 200c14 44 45 139 -2 165c2 -7 -22 -11 -26 -11c-60 -13 -85 -95 -104 -148c-13 -40 -50 -148 17 -148c67 3 99 90 115 142z
M721 681c9 -1 8 -14 -3 -37c-117 -202 -273 -369 -414 -571c-48 -63 -86 -107 -101 -104c-13 3 -2 47 41 114c109 175 276 401 441 571c16 17 28 28 36 27z" />
    <glyph glyph-name="asciicircum" unicode="^" horiz-adv-x="491" 
d="M432 578c16 -55 98 -381 57 -397c-58 -23 -111 272 -131 325c-46 -46 -222 -349 -273 -325c-34 15 184 340 228 396c17 23 36 56 67 64c5 1 11 1 16 0c25 -9 29 -34 36 -63z" />
    <glyph glyph-name="ampersand" unicode="&#x26;" horiz-adv-x="611" 
d="M504 153c49 -76 58 -141 47 -152c-11 -9 -60 28 -119 95c-53 -44 -115 -86 -183 -101c-140 -32 -226 25 -170 160c37 88 109 142 180 197c-97 133 23 351 223 347c94 -3 135 -105 82 -192c-48 -77 -100 -117 -172 -173c24 -50 39 -74 71 -122c41 32 69 57 114 110
c25 27 38 44 45 41c19 -6 -23 -125 -118 -210zM424 611c-91 -16 -118 -129 -70 -201c35 27 61 40 93 77c41 49 65 135 -23 124zM168 144c-51 -127 138 -56 216 10c-35 43 -57 77 -88 128c-47 -36 -102 -78 -128 -138z" />
    <glyph glyph-name="divide" unicode="&#xf7;" horiz-adv-x="567" 
d="M339 386c-13 7 -18 18 -17 32c3 27 38 58 66 61s41 -30 33 -56c-11 -33 -53 -50 -82 -37zM317 147c29 3 41 -30 33 -56c-11 -33 -53 -50 -82 -37c-13 7 -18 18 -17 32c3 27 38 58 66 61zM179 309h343c29 0 85 -11 79 -39c-5 -28 -66 -39 -95 -39h-343
c-30 0 -84 11 -79 39c6 28 66 39 95 39z" />
    <glyph glyph-name="questiondown" unicode="&#xbf;" horiz-adv-x="440" 
d="M333 430c-29 -3 -41 30 -33 56c11 33 53 50 82 37c13 -7 18 -18 17 -32c-3 -27 -38 -58 -66 -61zM26 -49c8 139 175 194 248 344c19 39 34 67 49 68c13 1 26 -31 14 -82c-36 -148 -214 -218 -214 -309c-3 -101 149 -90 214 -12c31 27 43 56 58 56c7 0 11 -8 11 -24
c-3 -80 -100 -163 -176 -176c-100 -16 -207 30 -204 135z" />
    <glyph glyph-name="trademark" unicode="&#x2122;" horiz-adv-x="909" 
d="M625 701c1 -11 -30 -37 -74 -50c-51 -16 -84 -20 -153 -23c-8 -79 -43 -203 -93 -277c-13 -18 -55 -68 -61 -46c-5 8 6 47 11 59c28 80 49 156 73 264c-39 3 -69 7 -100 12c-39 5 -67 19 -64 30s34 18 77 22c103 5 202 -2 311 10c40 3 70 10 73 -1zM911 273
c3 -8 18 -22 -1 -27c-36 -5 -44 47 -47 75c-4 108 62 305 43 309c-59 -32 -92 -298 -181 -298c-88 0 11 226 -5 275c-43 -75 -54 -148 -92 -232c-11 -25 -33 -67 -67 -67c-72 0 -34 179 -18 230c15 56 31 94 42 94c12 0 12 -39 5 -92c-5 -47 -9 -92 -12 -137
c48 96 73 311 173 311c78 0 16 -156 16 -224c27 61 75 218 162 229c56 0 44 -84 36 -128c-15 -85 -39 -170 -54 -262c-3 -25 -3 -45 0 -56z" />
    <glyph glyph-name="dagger" unicode="&#x2020;" horiz-adv-x="252" 
d="M262 435c54 0 109 -11 103 -39c-5 -28 -68 -39 -117 -39c-27 -145 -69 -293 -118 -414c-31 -72 -59 -121 -74 -118s-6 56 9 127c36 125 63 266 94 405c-56 0 -109 11 -104 39c6 28 66 39 122 39c20 83 42 162 71 235c13 23 23 34 31 32c7 -3 8 -16 7 -37
c-3 -71 -11 -147 -24 -230z" />
    <glyph glyph-name="daggerdbl" unicode="&#x2021;" horiz-adv-x="252" 
d="M198 144c55 0 111 -11 105 -39c-7 -28 -65 -39 -128 -39c-12 -41 -86 -249 -119 -241c-29 4 31 199 39 241c-53 0 -106 11 -101 39c6 28 65 39 118 39l47 213c-56 0 -109 11 -104 39c6 28 66 39 122 39c20 83 42 162 71 235c13 23 23 34 31 32c7 -3 8 -16 7 -37
c-3 -71 -11 -147 -24 -230c54 0 109 -11 103 -39c-5 -28 -68 -39 -117 -39c-14 -71 -31 -142 -50 -213z" />
    <glyph glyph-name="oe" unicode="&#x153;" horiz-adv-x="667" 
d="M659 115c7 -3 3 -25 -26 -57c-40 -43 -91 -59 -148 -59c-43 0 -66 25 -85 52c-39 -41 -90 -67 -153 -66c-144 0 -187 119 -139 275c27 83 88 182 175 224c39 19 69 18 73 3c15 7 14 9 34 6c52 -11 81 -47 97 -94c47 60 103 100 159 100c95 0 74 -110 45 -181
c-31 -75 -121 -170 -208 -189c0 -57 73 -70 125 -39c27 15 43 29 51 25zM268 84c113 0 154 184 127 267c-15 47 -23 73 -56 97c-32 -36 -66 -69 -95 -113c-72 -101 -113 -251 24 -251zM613 404c-36 -26 -91 -96 -115 -189c154 99 126 197 115 189z" />
    <glyph glyph-name="OE" unicode="&#x152;" horiz-adv-x="913" 
d="M1082 660c2 -9 7 -51 -16 -54c-11 -1 -16 12 -31 23c-51 35 -132 29 -201 16s-184 -56 -203 -143c-28 -131 179 -138 274 -138c19 0 21 -19 14 -38c-21 -60 -99 -62 -150 -73c-51 -8 -148 -51 -153 -114c-5 -67 73 -89 162 -81s136 50 147 34c14 -22 -72 -90 -144 -109
c-110 -29 -275 -6 -278 123c-65 -73 -149 -121 -253 -118c-160 5 -197 176 -165 326c37 170 191 443 395 395c72 45 128 15 160 -38c60 43 131 69 198 77c89 11 209 0 244 -88zM280 105c118 0 221 151 269 244c-31 40 -42 95 -27 156c9 43 29 79 56 111c-9 35 -29 61 -64 74
c16 -27 -32 -21 -76 -29c-140 -26 -222 -220 -241 -345c-13 -73 -16 -211 83 -211z" />
    <glyph glyph-name="AE" unicode="&#xc6;" horiz-adv-x="864" 
d="M1028 660c2 -9 7 -51 -16 -54c-11 -1 -16 12 -31 23c-51 35 -132 29 -201 16s-184 -56 -203 -143c-28 -131 179 -138 274 -138c19 0 21 -19 14 -38c-21 -60 -99 -62 -150 -73c-51 -8 -148 -51 -153 -114c-5 -67 73 -89 162 -81s136 50 147 34c14 -22 -72 -90 -144 -109
c-183 -45 -303 34 -279 255l-192 16c-33 -68 -66 -136 -115 -207c-28 -41 -57 -69 -72 -62s-9 38 6 83c21 65 53 126 85 194c-71 7 -116 24 -105 59s64 44 153 36c59 118 191 398 294 398c40 0 60 -41 68 -101c60 52 138 85 214 94c89 11 209 0 244 -88zM306 349l152 -13
c11 99 24 198 17 299c-71 -85 -125 -190 -169 -286z" />
    <glyph glyph-name="ae" unicode="&#xe6;" horiz-adv-x="677" 
d="M350 41c5 -27 19 -40 14 -49c-3 -5 -10 -6 -21 -3c-37 10 -64 58 -59 100c-53 -55 -128 -108 -202 -89c-49 12 -86 54 -79 110c5 95 106 162 197 194c25 8 106 28 114 62c16 70 -69 74 -127 43c-29 -16 -46 -33 -54 -30c-16 29 58 92 100 108c96 40 181 -18 170 -118
c-5 -40 -33 -80 -72 -104c-61 -37 -135 -46 -194 -92c-30 -22 -49 -64 -13 -79c41 -14 99 47 131 79c30 33 60 93 106 82c12 -3 20 -18 17 -33c-3 -52 -39 -121 -28 -181zM688 115c7 -3 3 -25 -26 -57c-40 -43 -91 -59 -148 -59c-232 0 -32 500 161 500
c95 0 74 -110 45 -181c-31 -75 -121 -170 -208 -189c0 -57 73 -70 125 -39c27 15 43 29 51 25zM642 404c-36 -26 -91 -96 -115 -189c154 99 126 197 115 189z" />
    <glyph glyph-name="ccedilla" unicode="&#xe7;" horiz-adv-x="397" 
d="M165 274c-48 -95 -27 -188 86 -183c35 3 68 14 93 22c25 9 42 14 47 7c6 -7 -4 -22 -29 -45c-57 -51 -130 -76 -198 -65c-137 24 -151 163 -87 297c51 84 119 155 219 184c72 16 147 -11 168 -80c7 -31 -3 -48 -12 -51s-17 9 -32 24c-15 13 -37 27 -69 30
c-78 3 -137 -64 -186 -140zM220 2c11 0 4 -26 -16 -53c49 -8 59 -50 53 -80c-8 -30 -39 -70 -107 -70c-57 0 -72 41 -59 61c14 20 38 -15 71 -15c67 0 75 72 -24 72c-11 0 1 14 13 29c11 14 51 56 69 56z" />
    <glyph glyph-name="egrave" unicode="&#xe8;" horiz-adv-x="306" 
d="M317 115c7 -3 3 -25 -26 -57c-40 -43 -91 -59 -148 -59c-232 0 -32 500 161 500c95 0 74 -110 45 -181c-31 -75 -121 -170 -208 -189c0 -57 73 -70 125 -39c27 15 43 29 51 25zM271 404c-36 -26 -91 -96 -115 -189c154 99 126 197 115 189zM234 644c-37 58 64 63 80 19
c8 -21 56 -122 26 -122c-40 0 -87 73 -106 103z" />
    <glyph glyph-name="eacute" unicode="&#xe9;" horiz-adv-x="306" 
d="M317 115c7 -3 3 -25 -26 -57c-40 -43 -91 -59 -148 -59c-232 0 -32 500 161 500c95 0 74 -110 45 -181c-31 -75 -121 -170 -208 -189c0 -57 73 -70 125 -39c27 15 43 29 51 25zM271 404c-36 -26 -91 -96 -115 -189c154 99 126 197 115 189zM271 663c35 43 134 41 72 -19
c-32 -29 -109 -103 -150 -103c-30 0 62 100 78 122z" />
    <glyph glyph-name="ecircumflex" unicode="&#xea;" horiz-adv-x="306" 
d="M317 115c7 -3 3 -25 -26 -57c-40 -43 -91 -59 -148 -59c-232 0 -32 500 161 500c95 0 74 -110 45 -181c-31 -75 -121 -170 -208 -189c0 -57 73 -70 125 -39c27 15 43 29 51 25zM271 404c-36 -26 -91 -96 -115 -189c154 99 126 197 115 189zM357 619c16 -30 26 -72 10 -82
c-16 -11 -41 25 -56 53c-7 15 -13 31 -24 44c-13 -15 -27 -28 -42 -44c-26 -29 -65 -63 -78 -53c-12 10 15 53 44 82c23 26 60 73 89 73c33 0 44 -49 57 -73z" />
    <glyph glyph-name="edieresis" unicode="&#xeb;" horiz-adv-x="306" 
d="M317 115c7 -3 3 -25 -26 -57c-40 -43 -91 -59 -148 -59c-232 0 -32 500 161 500c95 0 74 -110 45 -181c-31 -75 -121 -170 -208 -189c0 -57 73 -70 125 -39c27 15 43 29 51 25zM271 404c-36 -26 -91 -96 -115 -189c154 99 126 197 115 189zM212 675c29 3 41 -30 33 -56
c-11 -33 -53 -50 -82 -37c-13 7 -18 18 -17 32c3 27 38 58 66 61zM387 675c29 3 41 -30 33 -56c-11 -33 -53 -50 -82 -37c-13 7 -18 18 -17 32c3 27 38 58 66 61z" />
    <glyph glyph-name="oacute" unicode="&#xf3;" horiz-adv-x="424" 
d="M462 282c-8 -129 -100 -300 -255 -297c-144 0 -187 119 -139 275c27 83 88 182 175 224c39 19 69 18 73 3c15 7 14 9 34 6c91 -19 115 -119 112 -211zM228 84c113 0 154 184 127 267c-15 47 -23 73 -56 97c-32 -36 -66 -69 -95 -113c-72 -101 -113 -251 24 -251zM330 663
c35 43 134 41 72 -19c-32 -29 -109 -103 -150 -103c-30 0 62 100 78 122z" />
    <glyph glyph-name="Ydieresis" unicode="&#x178;" horiz-adv-x="644" 
d="M666 277c-64 -172 -93 -500 -408 -577c-87 -21 -137 7 -132 29c4 19 54 27 122 54c109 33 217 152 262 323c-43 -57 -133 -103 -222 -103c-173 0 -266 109 -197 297c85 239 194 400 235 400s-37 -185 -112 -389c-61 -157 25 -202 111 -202c111 0 207 129 250 289
c20 73 68 300 174 300c57 0 -23 -260 -83 -421zM487 875c29 3 41 -30 33 -56c-11 -33 -53 -50 -82 -37c-13 7 -18 18 -17 32c3 27 38 58 66 61zM662 875c29 3 41 -30 33 -56c-11 -33 -53 -50 -82 -37c-13 7 -18 18 -17 32c3 27 38 58 66 61z" />
    <glyph glyph-name="Agrave" unicode="&#xc0;" horiz-adv-x="568" 
d="M554 328c61 -5 109 -22 98 -57s-64 -44 -108 -41v-1c-4 -51 -12 -106 -20 -149c-3 -8 -14 -85 -35 -82c-27 0 -36 42 -42 67c-9 56 -4 113 1 173l-192 16c-33 -68 -66 -136 -115 -207c-28 -41 -57 -69 -72 -62s-9 38 6 83c21 65 53 126 85 194c-71 7 -116 24 -105 59
s64 44 153 36c59 118 191 398 294 398c116 0 60 -351 52 -427zM306 349l152 -13c11 97 28 200 17 299c-71 -85 -125 -190 -169 -286zM428 893c-37 58 64 63 80 19c8 -21 56 -122 26 -122c-40 0 -87 73 -106 103z" />
    <glyph glyph-name="Aacute" unicode="&#xc1;" horiz-adv-x="568" 
d="M554 328c61 -5 109 -22 98 -57s-64 -44 -108 -41v-1c-4 -51 -12 -106 -20 -149c-3 -8 -14 -85 -35 -82c-27 0 -36 42 -42 67c-9 56 -4 113 1 173l-192 16c-33 -68 -66 -136 -115 -207c-28 -41 -57 -69 -72 -62s-9 38 6 83c21 65 53 126 85 194c-71 7 -116 24 -105 59
s64 44 153 36c59 118 191 398 294 398c116 0 60 -351 52 -427zM306 349l152 -13c11 97 28 200 17 299c-71 -85 -125 -190 -169 -286zM530 907c35 43 134 41 72 -19c-32 -29 -109 -103 -150 -103c-30 0 62 100 78 122z" />
    <glyph glyph-name="Acircumflex" unicode="&#xc2;" horiz-adv-x="568" 
d="M554 328c61 -5 109 -22 98 -57s-64 -44 -108 -41v-1c-4 -51 -12 -106 -20 -149c-3 -8 -14 -85 -35 -82c-27 0 -36 42 -42 67c-9 56 -4 113 1 173l-192 16c-33 -68 -66 -136 -115 -207c-28 -41 -57 -69 -72 -62s-9 38 6 83c21 65 53 126 85 194c-71 7 -116 24 -105 59
s64 44 153 36c59 118 191 398 294 398c116 0 60 -351 52 -427zM306 349l152 -13c11 97 28 200 17 299c-71 -85 -125 -190 -169 -286zM596 884c16 -30 26 -72 10 -82c-16 -11 -41 25 -56 53c-7 15 -13 31 -24 44c-13 -15 -27 -28 -42 -44c-26 -29 -65 -63 -78 -53
c-12 10 15 53 44 82c23 26 60 73 89 73c33 0 44 -49 57 -73z" />
    <glyph glyph-name="Atilde" unicode="&#xc3;" horiz-adv-x="568" 
d="M554 328c61 -5 109 -22 98 -57s-64 -44 -108 -41v-1c-4 -51 -12 -106 -20 -149c-3 -8 -14 -85 -35 -82c-27 0 -36 42 -42 67c-9 56 -4 113 1 173l-192 16c-33 -68 -66 -136 -115 -207c-28 -41 -57 -69 -72 -62s-9 38 6 83c21 65 53 126 85 194c-71 7 -116 24 -105 59
s64 44 153 36c59 118 191 398 294 398c116 0 60 -351 52 -427zM306 349l152 -13c11 97 28 200 17 299c-71 -85 -125 -190 -169 -286zM532 889c27 -19 67 -10 90 17c9 11 17 20 24 20c17 -17 -21 -73 -54 -84c-70 -27 -93 39 -144 20c-31 -13 -41 -44 -54 -44
c-7 3 -10 18 1 37c32 56 90 65 137 34z" />
    <glyph glyph-name="Adieresis" unicode="&#xc4;" horiz-adv-x="568" 
d="M554 328c61 -5 109 -22 98 -57s-64 -44 -108 -41v-1c-4 -51 -12 -106 -20 -149c-3 -8 -14 -85 -35 -82c-27 0 -36 42 -42 67c-9 56 -4 113 1 173l-192 16c-33 -68 -66 -136 -115 -207c-28 -41 -57 -69 -72 -62s-9 38 6 83c21 65 53 126 85 194c-71 7 -116 24 -105 59
s64 44 153 36c59 118 191 398 294 398c116 0 60 -351 52 -427zM306 349l152 -13c11 97 28 200 17 299c-71 -85 -125 -190 -169 -286zM455 914c29 3 41 -30 33 -56c-11 -33 -53 -50 -82 -37c-13 7 -18 18 -17 32c3 27 38 58 66 61zM630 914c29 3 41 -30 33 -56
c-11 -33 -53 -50 -82 -37c-13 7 -18 18 -17 32c3 27 38 58 66 61z" />
    <glyph glyph-name="Aring" unicode="&#xc5;" horiz-adv-x="568" 
d="M554 328c61 -5 109 -22 98 -57s-64 -44 -108 -41v-1c-4 -51 -12 -106 -20 -149c-3 -8 -14 -85 -35 -82c-27 0 -36 42 -42 67c-9 56 -4 113 1 173l-192 16c-33 -68 -66 -136 -115 -207c-28 -41 -57 -69 -72 -62s-9 38 6 83c21 65 53 126 85 194c-71 7 -116 24 -105 59
s64 44 153 36c59 118 191 398 294 398c116 0 60 -351 52 -427zM306 349l152 -13c11 97 28 200 17 299c-71 -85 -125 -190 -169 -286zM427 869c7 33 34 65 70 80c31 11 50 4 47 -3s-18 -11 -37 -23c-20 -12 -37 -34 -42 -54c-7 -31 18 -58 50 -58c33 0 70 27 75 58
c5 20 -3 42 -18 54s-29 16 -28 23s23 14 47 3c31 -12 44 -43 37 -80c-8 -55 -69 -93 -121 -96c-52 0 -93 40 -80 96z" />
    <glyph glyph-name="Ccedilla" unicode="&#xc7;" horiz-adv-x="541" 
d="M140 455c103 150 321 334 498 294c68 -16 100 -85 76 -160c-17 -61 -60 -118 -111 -165c-23 -20 -39 -27 -47 -22c-16 11 39 115 47 138c29 71 22 115 -61 102c-120 -21 -237 -116 -309 -230c-83 -131 -101 -352 62 -368c123 -13 222 45 241 18
c-8 -52 -159 -135 -290 -122c-219 24 -255 295 -106 515zM292 2c11 0 4 -26 -16 -53c49 -8 59 -50 53 -80c-8 -30 -39 -70 -107 -70c-57 0 -72 41 -59 61c14 20 38 -15 71 -15c67 0 75 72 -24 72c-11 0 1 14 13 29c11 14 51 56 69 56z" />
    <glyph glyph-name="Egrave" unicode="&#xc8;" horiz-adv-x="511" 
d="M673 660c2 -9 7 -51 -16 -54c-11 -1 -16 12 -31 23c-51 35 -132 29 -201 16s-184 -56 -203 -143c-28 -131 179 -138 274 -138c19 0 21 -19 14 -38c-21 -60 -99 -62 -150 -73c-51 -8 -148 -51 -153 -114c-5 -67 73 -89 162 -81s136 50 147 34c14 -22 -72 -90 -144 -109
c-113 -29 -286 -4 -278 136c3 71 45 132 109 180c-73 33 -113 111 -90 206c30 140 184 227 316 243c89 11 209 0 244 -88zM409 889c-37 58 64 63 80 19c8 -21 56 -122 26 -122c-40 0 -87 73 -106 103z" />
    <glyph glyph-name="Eacute" unicode="&#xc9;" horiz-adv-x="511" 
d="M673 660c2 -9 7 -51 -16 -54c-11 -1 -16 12 -31 23c-51 35 -132 29 -201 16s-184 -56 -203 -143c-28 -131 179 -138 274 -138c19 0 21 -19 14 -38c-21 -60 -99 -62 -150 -73c-51 -8 -148 -51 -153 -114c-5 -67 73 -89 162 -81s136 50 147 34c14 -22 -72 -90 -144 -109
c-113 -29 -286 -4 -278 136c3 71 45 132 109 180c-73 33 -113 111 -90 206c30 140 184 227 316 243c89 11 209 0 244 -88zM479 912c35 43 134 41 72 -19c-32 -29 -109 -103 -150 -103c-30 0 62 100 78 122z" />
    <glyph glyph-name="Ecircumflex" unicode="&#xca;" horiz-adv-x="511" 
d="M673 660c2 -9 7 -51 -16 -54c-11 -1 -16 12 -31 23c-51 35 -132 29 -201 16s-184 -56 -203 -143c-28 -131 179 -138 274 -138c19 0 21 -19 14 -38c-21 -60 -99 -62 -150 -73c-51 -8 -148 -51 -153 -114c-5 -67 73 -89 162 -81s136 50 147 34c14 -22 -72 -90 -144 -109
c-113 -29 -286 -4 -278 136c3 71 45 132 109 180c-73 33 -113 111 -90 206c30 140 184 227 316 243c89 11 209 0 244 -88zM545 882c16 -30 26 -72 10 -82c-16 -11 -41 25 -56 53c-7 15 -13 31 -24 44c-13 -15 -27 -28 -42 -44c-26 -29 -65 -63 -78 -53c-12 10 15 53 44 82
c23 26 60 73 89 73c33 0 44 -49 57 -73z" />
    <glyph glyph-name="Edieresis" unicode="&#xcb;" horiz-adv-x="511" 
d="M673 660c2 -9 7 -51 -16 -54c-11 -1 -16 12 -31 23c-51 35 -132 29 -201 16s-184 -56 -203 -143c-28 -131 179 -138 274 -138c19 0 21 -19 14 -38c-21 -60 -99 -62 -150 -73c-51 -8 -148 -51 -153 -114c-5 -67 73 -89 162 -81s136 50 147 34c14 -22 -72 -90 -144 -109
c-113 -29 -286 -4 -278 136c3 71 45 132 109 180c-73 33 -113 111 -90 206c30 140 184 227 316 243c89 11 209 0 244 -88zM400 921c29 3 41 -30 33 -56c-11 -33 -53 -50 -82 -37c-13 7 -18 18 -17 32c3 27 38 58 66 61zM575 921c29 3 41 -30 33 -56c-11 -33 -53 -50 -82 -37
c-13 7 -18 18 -17 32c3 27 38 58 66 61z" />
    <glyph glyph-name="Igrave" unicode="&#xcc;" horiz-adv-x="160" 
d="M269 641c-46 -178 -78 -370 -145 -552c-27 -72 -59 -126 -78 -123s-15 54 -6 126c27 181 61 376 149 562c35 73 78 121 95 115c16 -8 4 -58 -15 -128zM218 908c-37 58 64 63 80 19c8 -21 56 -122 26 -122c-40 0 -87 73 -106 103z" />
    <glyph glyph-name="Iacute" unicode="&#xcd;" horiz-adv-x="160" 
d="M269 641c-46 -178 -78 -370 -145 -552c-27 -72 -59 -126 -78 -123s-15 54 -6 126c27 181 61 376 149 562c35 73 78 121 95 115c16 -8 4 -58 -15 -128zM286 933c35 43 134 41 72 -19c-32 -29 -109 -103 -150 -103c-30 0 62 100 78 122z" />
    <glyph glyph-name="Icircumflex" unicode="&#xce;" horiz-adv-x="160" 
d="M269 641c-46 -178 -78 -370 -145 -552c-27 -72 -59 -126 -78 -123s-15 54 -6 126c27 181 61 376 149 562c35 73 78 121 95 115c16 -8 4 -58 -15 -128zM369 879c16 -30 26 -72 10 -82c-16 -11 -41 25 -56 53c-7 15 -13 31 -24 44c-13 -15 -27 -28 -42 -44
c-26 -29 -65 -63 -78 -53c-12 10 15 53 44 82c23 26 60 73 89 73c33 0 44 -49 57 -73z" />
    <glyph glyph-name="Idieresis" unicode="&#xcf;" horiz-adv-x="160" 
d="M269 641c-46 -178 -78 -370 -145 -552c-27 -72 -59 -126 -78 -123s-15 54 -6 126c27 181 61 376 149 562c35 73 78 121 95 115c16 -8 4 -58 -15 -128zM223 925c29 3 41 -30 33 -56c-11 -33 -53 -50 -82 -37c-13 7 -18 18 -17 32c3 27 38 58 66 61zM398 925
c29 3 41 -30 33 -56c-11 -33 -53 -50 -82 -37c-13 7 -18 18 -17 32c3 27 38 58 66 61z" />
    <glyph glyph-name="Ntilde" unicode="&#xd1;" horiz-adv-x="621" 
d="M807 858c7 -4 9 -9 8 -14c-5 -24 -25 -13 -57 -89c-76 -180 -98 -763 -299 -763c-75 0 -121 50 -150 114c-46 102 -49 224 -65 375c-32 -127 -48 -261 -117 -389c-19 -33 -54 -90 -98 -96c-25 -3 -14 26 -8 43c51 158 66 252 117 484c8 44 45 174 133 174
c75 0 83 -118 91 -177c13 -140 -3 -334 112 -411c120 208 91 493 210 676c26 38 76 89 123 73zM515 854c27 -19 67 -10 90 17c9 11 17 20 24 20c17 -17 -21 -73 -54 -84c-70 -27 -93 39 -144 20c-31 -13 -41 -44 -54 -44c-7 3 -10 18 1 37c32 56 90 65 137 34z" />
    <glyph glyph-name="Ograve" unicode="&#xd2;" horiz-adv-x="586" 
d="M672 549c-4 -202 -145 -569 -422 -561c-160 5 -197 176 -165 326c37 170 191 443 395 395c122 74 195 -59 192 -160zM505 288c73 141 131 353 9 402c16 -27 -32 -21 -76 -29c-140 -26 -222 -220 -241 -345c-13 -73 -16 -211 83 -211c99 -5 179 97 225 183zM427 894
c-37 58 64 63 80 19c8 -21 56 -122 26 -122c-40 0 -87 73 -106 103z" />
    <glyph glyph-name="Oacute" unicode="&#xd3;" horiz-adv-x="586" 
d="M672 549c-4 -202 -145 -569 -422 -561c-160 5 -197 176 -165 326c37 170 191 443 395 395c122 74 195 -59 192 -160zM505 288c73 141 131 353 9 402c16 -27 -32 -21 -76 -29c-140 -26 -222 -220 -241 -345c-13 -73 -16 -211 83 -211c99 -5 179 97 225 183zM494 913
c35 43 134 41 72 -19c-32 -29 -109 -103 -150 -103c-30 0 62 100 78 122z" />
    <glyph glyph-name="Ocircumflex" unicode="&#xd4;" horiz-adv-x="586" 
d="M672 549c-4 -202 -145 -569 -422 -561c-160 5 -197 176 -165 326c37 170 191 443 395 395c122 74 195 -59 192 -160zM505 288c73 141 131 353 9 402c16 -27 -32 -21 -76 -29c-140 -26 -222 -220 -241 -345c-13 -73 -16 -211 83 -211c99 -5 179 97 225 183zM562 879
c16 -30 26 -72 10 -82c-16 -11 -41 25 -56 53c-7 15 -13 31 -24 44c-13 -15 -27 -28 -42 -44c-26 -29 -65 -63 -78 -53c-12 10 15 53 44 82c23 26 60 73 89 73c33 0 44 -49 57 -73z" />
    <glyph glyph-name="Otilde" unicode="&#xd5;" horiz-adv-x="586" 
d="M672 549c-4 -202 -145 -569 -422 -561c-160 5 -197 176 -165 326c37 170 191 443 395 395c122 74 195 -59 192 -160zM505 288c73 141 131 353 9 402c16 -27 -32 -21 -76 -29c-140 -26 -222 -220 -241 -345c-13 -73 -16 -211 83 -211c99 -5 179 97 225 183zM501 874
c27 -19 67 -10 90 17c9 11 17 20 24 20c17 -17 -21 -73 -54 -84c-70 -27 -93 39 -144 20c-31 -13 -41 -44 -54 -44c-7 3 -10 18 1 37c32 56 90 65 137 34z" />
    <glyph glyph-name="Odieresis" unicode="&#xd6;" horiz-adv-x="586" 
d="M672 549c-4 -202 -145 -569 -422 -561c-160 5 -197 176 -165 326c37 170 191 443 395 395c122 74 195 -59 192 -160zM505 288c73 141 131 353 9 402c16 -27 -32 -21 -76 -29c-140 -26 -222 -220 -241 -345c-13 -73 -16 -211 83 -211c99 -5 179 97 225 183zM410 905
c29 3 41 -30 33 -56c-11 -33 -53 -50 -82 -37c-13 7 -18 18 -17 32c3 27 38 58 66 61zM585 905c29 3 41 -30 33 -56c-11 -33 -53 -50 -82 -37c-13 7 -18 18 -17 32c3 27 38 58 66 61z" />
    <glyph glyph-name="Ugrave" unicode="&#xd9;" horiz-adv-x="520" 
d="M290 119c78 0 127 103 156 178c48 130 62 265 126 396c5 11 39 68 58 60c7 -7 0 -27 -7 -67c-40 -224 -54 -684 -378 -684c-281 0 -132 452 -44 647c21 41 37 64 48 63s10 -26 3 -69c-19 -124 -58 -248 -61 -387c-3 -76 7 -137 99 -137zM383 844c-37 58 64 63 80 19
c8 -21 56 -122 26 -122c-40 0 -87 73 -106 103z" />
    <glyph glyph-name="Uacute" unicode="&#xda;" horiz-adv-x="520" 
d="M290 119c78 0 127 103 156 178c48 130 62 265 126 396c5 11 39 68 58 60c7 -7 0 -27 -7 -67c-40 -224 -54 -684 -378 -684c-281 0 -132 452 -44 647c21 41 37 64 48 63s10 -26 3 -69c-19 -124 -58 -248 -61 -387c-3 -76 7 -137 99 -137zM420 863c35 43 134 41 72 -19
c-32 -29 -109 -103 -150 -103c-30 0 62 100 78 122z" />
    <glyph glyph-name="Ucircumflex" unicode="&#xdb;" horiz-adv-x="520" 
d="M290 119c78 0 127 103 156 178c48 130 62 265 126 396c5 11 39 68 58 60c7 -7 0 -27 -7 -67c-40 -224 -54 -684 -378 -684c-281 0 -132 452 -44 647c21 41 37 64 48 63s10 -26 3 -69c-19 -124 -58 -248 -61 -387c-3 -76 7 -137 99 -137zM506 819c16 -30 26 -72 10 -82
c-16 -11 -41 25 -56 53c-7 15 -13 31 -24 44c-13 -15 -27 -28 -42 -44c-26 -29 -65 -63 -78 -53c-12 10 15 53 44 82c23 26 60 73 89 73c33 0 44 -49 57 -73z" />
    <glyph glyph-name="Udieresis" unicode="&#xdc;" horiz-adv-x="520" 
d="M290 119c78 0 127 103 156 178c48 130 62 265 126 396c5 11 39 68 58 60c7 -7 0 -27 -7 -67c-40 -224 -54 -684 -378 -684c-281 0 -132 452 -44 647c21 41 37 64 48 63s10 -26 3 -69c-19 -124 -58 -248 -61 -387c-3 -76 7 -137 99 -137zM361 875c29 3 41 -30 33 -56
c-11 -33 -53 -50 -82 -37c-13 7 -18 18 -17 32c3 27 38 58 66 61zM536 875c29 3 41 -30 33 -56c-11 -33 -53 -50 -82 -37c-13 7 -18 18 -17 32c3 27 38 58 66 61z" />
    <glyph glyph-name="igrave" unicode="&#xec;" horiz-adv-x="169" 
d="M220 480c13 -9 3 -39 -8 -79c-11 -39 -23 -91 -35 -139c-12 -60 -25 -121 -52 -186c-19 -45 -43 -75 -59 -72s-15 33 -12 76c5 60 16 120 31 185c11 51 32 109 61 154c27 44 61 69 74 61zM166 644c-37 58 64 63 80 19c8 -21 56 -122 26 -122c-40 0 -87 73 -106 103z" />
    <glyph glyph-name="iacute" unicode="&#xed;" horiz-adv-x="169" 
d="M220 480c13 -9 3 -39 -8 -79c-11 -39 -23 -91 -35 -139c-12 -60 -25 -121 -52 -186c-19 -45 -43 -75 -59 -72s-15 33 -12 76c5 60 16 120 31 185c11 51 32 109 61 154c27 44 61 69 74 61zM203 663c35 43 134 41 72 -19c-32 -29 -109 -103 -150 -103c-30 0 62 100 78 122z
" />
    <glyph glyph-name="icircumflex" unicode="&#xee;" horiz-adv-x="169" 
d="M220 480c13 -9 3 -39 -8 -79c-11 -39 -23 -91 -35 -139c-12 -60 -25 -121 -52 -186c-19 -45 -43 -75 -59 -72s-15 33 -12 76c5 60 16 120 31 185c11 51 32 109 61 154c27 44 61 69 74 61zM289 619c16 -30 26 -72 10 -82c-16 -11 -41 25 -56 53c-7 15 -13 31 -24 44
c-13 -15 -27 -28 -42 -44c-26 -29 -65 -63 -78 -53c-12 10 15 53 44 82c23 26 60 73 89 73c33 0 44 -49 57 -73z" />
    <glyph glyph-name="idieresis" unicode="&#xef;" horiz-adv-x="169" 
d="M220 480c13 -9 3 -39 -8 -79c-11 -39 -23 -91 -35 -139c-12 -60 -25 -121 -52 -186c-19 -45 -43 -75 -59 -72s-15 33 -12 76c5 60 16 120 31 185c11 51 32 109 61 154c27 44 61 69 74 61zM144 675c29 3 41 -30 33 -56c-11 -33 -53 -50 -82 -37c-13 7 -18 18 -17 32
c3 27 38 58 66 61zM319 675c29 3 41 -30 33 -56c-11 -33 -53 -50 -82 -37c-13 7 -18 18 -17 32c3 27 38 58 66 61z" />
    <glyph glyph-name="ntilde" unicode="&#xf1;" horiz-adv-x="439" 
d="M437 -4c-1 -8 -12 -18 -35 -14c-108 24 -48 183 -32 261c4 31 45 179 -1 175c-48 -11 -79 -81 -96 -125c-28 -69 -48 -138 -85 -210c-19 -35 -47 -74 -90 -85c-61 -16 -68 51 -63 99c9 51 22 95 33 142c19 68 39 135 59 204c3 11 3 18 10 26c3 4 8 6 14 5
c7 -1 13 -5 19 -12c9 -15 15 -35 16 -62c0 -40 -25 -143 -36 -187c27 64 73 189 133 244c23 23 53 43 92 52c29 6 56 3 82 -10c65 -41 24 -180 8 -254c-27 -110 -50 -165 -34 -225c1 -9 7 -16 6 -24zM353 614c27 -19 67 -10 90 17c9 11 17 20 24 20c17 -17 -21 -73 -54 -84
c-70 -27 -93 39 -144 20c-31 -13 -41 -44 -54 -44c-7 3 -10 18 1 37c32 56 90 65 137 34z" />
    <glyph glyph-name="ograve" unicode="&#xf2;" horiz-adv-x="424" 
d="M462 282c-8 -129 -100 -300 -255 -297c-144 0 -187 119 -139 275c27 83 88 182 175 224c39 19 69 18 73 3c15 7 14 9 34 6c91 -19 115 -119 112 -211zM228 84c113 0 154 184 127 267c-15 47 -23 73 -56 97c-32 -36 -66 -69 -95 -113c-72 -101 -113 -251 24 -251zM293 644
c-37 58 64 63 80 19c8 -21 56 -122 26 -122c-40 0 -87 73 -106 103z" />
    <glyph glyph-name="ocircumflex" unicode="&#xf4;" horiz-adv-x="424" 
d="M462 282c-8 -129 -100 -300 -255 -297c-144 0 -187 119 -139 275c27 83 88 182 175 224c39 19 69 18 73 3c15 7 14 9 34 6c91 -19 115 -119 112 -211zM228 84c113 0 154 184 127 267c-15 47 -23 73 -56 97c-32 -36 -66 -69 -95 -113c-72 -101 -113 -251 24 -251zM416 619
c16 -30 26 -72 10 -82c-16 -11 -41 25 -56 53c-7 15 -13 31 -24 44c-13 -15 -27 -28 -42 -44c-26 -29 -65 -63 -78 -53c-12 10 15 53 44 82c23 26 60 73 89 73c33 0 44 -49 57 -73z" />
    <glyph glyph-name="otilde" unicode="&#xf5;" horiz-adv-x="424" 
d="M462 282c-8 -129 -100 -300 -255 -297c-144 0 -187 119 -139 275c27 83 88 182 175 224c39 19 69 18 73 3c15 7 14 9 34 6c91 -19 115 -119 112 -211zM228 84c113 0 154 184 127 267c-15 47 -23 73 -56 97c-32 -36 -66 -69 -95 -113c-72 -101 -113 -251 24 -251zM345 614
c27 -19 67 -10 90 17c9 11 17 20 24 20c17 -17 -21 -73 -54 -84c-70 -27 -93 39 -144 20c-31 -13 -41 -44 -54 -44c-7 3 -10 18 1 37c32 56 90 65 137 34z" />
    <glyph glyph-name="odieresis" unicode="&#xf6;" horiz-adv-x="424" 
d="M462 282c-8 -129 -100 -300 -255 -297c-144 0 -187 119 -139 275c27 83 88 182 175 224c39 19 69 18 73 3c15 7 14 9 34 6c91 -19 115 -119 112 -211zM228 84c113 0 154 184 127 267c-15 47 -23 73 -56 97c-32 -36 -66 -69 -95 -113c-72 -101 -113 -251 24 -251zM271 675
c29 3 41 -30 33 -56c-11 -33 -53 -50 -82 -37c-13 7 -18 18 -17 32c3 27 38 58 66 61zM446 675c29 3 41 -30 33 -56c-11 -33 -53 -50 -82 -37c-13 7 -18 18 -17 32c3 27 38 58 66 61z" />
    <glyph glyph-name="ugrave" unicode="&#xf9;" horiz-adv-x="447" 
d="M490 480c21 -29 9 -79 3 -121c-24 -121 -72 -309 -72 -345c3 -9 -14 -23 -38 -10c-31 18 -17 120 -4 187c-35 -105 -94 -183 -210 -205c-152 -28 -117 202 -89 302c12 49 34 104 58 145c8 13 48 75 69 62c12 -9 7 -35 -1 -76c-9 -39 -23 -90 -34 -135
c-8 -34 -56 -206 2 -206c104 12 174 276 205 350c17 50 72 94 111 52zM305 644c-37 58 64 63 80 19c8 -21 56 -122 26 -122c-40 0 -87 73 -106 103z" />
    <glyph glyph-name="uacute" unicode="&#xfa;" horiz-adv-x="447" 
d="M490 480c21 -29 9 -79 3 -121c-24 -121 -72 -309 -72 -345c3 -9 -14 -23 -38 -10c-31 18 -17 120 -4 187c-35 -105 -94 -183 -210 -205c-152 -28 -117 202 -89 302c12 49 34 104 58 145c8 13 48 75 69 62c12 -9 7 -35 -1 -76c-9 -39 -23 -90 -34 -135
c-8 -34 -56 -206 2 -206c104 12 174 276 205 350c17 50 72 94 111 52zM342 663c35 43 134 41 72 -19c-32 -29 -109 -103 -150 -103c-30 0 62 100 78 122z" />
    <glyph glyph-name="ucircumflex" unicode="&#xfb;" horiz-adv-x="447" 
d="M490 480c21 -29 9 -79 3 -121c-24 -121 -72 -309 -72 -345c3 -9 -14 -23 -38 -10c-31 18 -17 120 -4 187c-35 -105 -94 -183 -210 -205c-152 -28 -117 202 -89 302c12 49 34 104 58 145c8 13 48 75 69 62c12 -9 7 -35 -1 -76c-9 -39 -23 -90 -34 -135
c-8 -34 -56 -206 2 -206c104 12 174 276 205 350c17 50 72 94 111 52zM427 619c16 -30 26 -72 10 -82c-16 -11 -41 25 -56 53c-7 15 -13 31 -24 44c-13 -15 -27 -28 -42 -44c-26 -29 -65 -63 -78 -53c-12 10 15 53 44 82c23 26 60 73 89 73c33 0 44 -49 57 -73z" />
    <glyph glyph-name="udieresis" unicode="&#xfc;" horiz-adv-x="447" 
d="M490 480c21 -29 9 -79 3 -121c-24 -121 -72 -309 -72 -345c3 -9 -14 -23 -38 -10c-31 18 -17 120 -4 187c-35 -105 -94 -183 -210 -205c-152 -28 -117 202 -89 302c12 49 34 104 58 145c8 13 48 75 69 62c12 -9 7 -35 -1 -76c-9 -39 -23 -90 -34 -135
c-8 -34 -56 -206 2 -206c104 12 174 276 205 350c17 50 72 94 111 52zM282 675c29 3 41 -30 33 -56c-11 -33 -53 -50 -82 -37c-13 7 -18 18 -17 32c3 27 38 58 66 61zM457 675c29 3 41 -30 33 -56c-11 -33 -53 -50 -82 -37c-13 7 -18 18 -17 32c3 27 38 58 66 61z" />
    <glyph glyph-name="ydieresis" unicode="&#xff;" horiz-adv-x="458" 
d="M479 499c135 0 -88 -510 -115 -564c-62 -121 -179 -308 -337 -300c-19 0 -108 24 -90 55c11 17 51 7 100 18c113 27 186 145 240 253c37 76 67 153 94 238c-48 -85 -157 -267 -272 -227c-85 26 -64 150 -43 227c12 51 104 304 146 304c37 0 -17 -132 -55 -288
c-19 -76 -30 -152 -2 -152c73 0 163 191 216 303c19 40 62 133 118 133zM288 675c29 3 41 -30 33 -56c-11 -33 -53 -50 -82 -37c-13 7 -18 18 -17 32c3 27 38 58 66 61zM463 675c29 3 41 -30 33 -56c-11 -33 -53 -50 -82 -37c-13 7 -18 18 -17 32c3 27 38 58 66 61z" />
    <glyph glyph-name="germandbls" unicode="&#xdf;" horiz-adv-x="490" 
d="M376 375c-10 -57 109 -105 116 -192c11 -114 -107 -203 -219 -187c-53 12 -81 39 -96 62s-19 38 -11 45s23 2 44 -9c23 -11 52 -24 87 -24c35 -3 72 15 89 43c37 107 -127 144 -107 256c22 105 112 153 158 153c25 65 -6 102 -74 102c-81 -11 -117 -84 -135 -166
c-48 -201 -119 -457 -153 -457c-36 0 11 258 56 458c27 129 121 261 254 261c116 0 176 -67 155 -175c-11 -48 -30 -98 -58 -98c-37 0 -101 -37 -106 -72z" />
    <glyph glyph-name="oslash" unicode="&#xf8;" horiz-adv-x="424" 
d="M462 282c-8 -129 -100 -300 -255 -297c-19 0 -35 2 -50 6c-31 -52 -58 -88 -70 -85c-15 3 -7 47 16 110c-57 47 -68 136 -35 244c27 83 88 182 175 224c39 19 69 18 73 3c15 7 14 9 34 6c7 -1 11 -3 15 -4c27 35 54 69 82 102c15 17 24 28 32 27c7 -1 11 -14 4 -37
c-19 -47 -39 -89 -62 -132c33 -43 42 -106 41 -167zM204 335c-48 -70 -84 -162 -57 -213c48 104 106 206 174 305c-7 8 -14 15 -22 21c-32 -36 -66 -69 -95 -113zM228 84c107 0 149 166 131 253c-49 -84 -100 -164 -149 -252c3 -1 9 -1 18 -1z" />
    <glyph glyph-name="Oslash" unicode="&#xd8;" horiz-adv-x="586" 
d="M672 549c-4 -202 -145 -569 -422 -561c-37 1 -67 10 -92 28c-20 -21 -35 -33 -43 -30c-11 4 -8 28 7 64c-48 64 -58 167 -37 264c37 170 191 443 395 395c47 28 85 27 116 8c17 17 33 34 52 51c19 19 32 31 41 28c7 -3 9 -19 -2 -46c-15 -27 -31 -53 -47 -80
c21 -35 33 -81 32 -121zM438 661c-140 -26 -222 -220 -241 -345c-7 -33 -11 -81 -3 -122c96 169 216 328 355 475c-11 9 -22 16 -35 21c16 -27 -32 -21 -76 -29zM505 288c45 88 87 208 79 296c-109 -157 -232 -300 -346 -468c11 -7 25 -11 42 -11c99 -5 179 97 225 183z" />
    <glyph glyph-name="logicalnot" unicode="&#xac;" horiz-adv-x="600" 
d="M625 330c-10 -63 -50 -224 -75 -219c-20 0 -7 101 14 204c3 9 0 15 -7 17h-272c-79 0 -180 8 -175 29s106 29 187 29h273c33 0 58 -25 55 -60z" />
    <glyph glyph-name="agrave" unicode="&#xe0;" 
d="M360 41c5 -27 19 -40 14 -49c-3 -5 -10 -6 -21 -3c-37 10 -64 58 -59 100c-53 -55 -128 -108 -202 -89c-49 12 -86 54 -79 110c5 95 106 162 197 194c25 8 106 28 114 62c16 70 -69 74 -127 43c-29 -16 -46 -33 -54 -30c-16 29 58 92 100 108c96 40 181 -18 170 -118
c-5 -40 -33 -80 -72 -104c-61 -37 -135 -46 -194 -92c-30 -22 -49 -64 -13 -79c41 -14 99 47 131 79c30 33 60 93 106 82c12 -3 20 -18 17 -33c-3 -52 -39 -121 -28 -181zM272 644c-37 58 64 63 80 19c8 -21 56 -122 26 -122c-40 0 -87 73 -106 103z" />
    <glyph glyph-name="aacute" unicode="&#xe1;" 
d="M360 41c5 -27 19 -40 14 -49c-3 -5 -10 -6 -21 -3c-37 10 -64 58 -59 100c-53 -55 -128 -108 -202 -89c-49 12 -86 54 -79 110c5 95 106 162 197 194c25 8 106 28 114 62c16 70 -69 74 -127 43c-29 -16 -46 -33 -54 -30c-16 29 58 92 100 108c96 40 181 -18 170 -118
c-5 -40 -33 -80 -72 -104c-61 -37 -135 -46 -194 -92c-30 -22 -49 -64 -13 -79c41 -14 99 47 131 79c30 33 60 93 106 82c12 -3 20 -18 17 -33c-3 -52 -39 -121 -28 -181zM309 663c35 43 134 41 72 -19c-32 -29 -109 -103 -150 -103c-30 0 62 100 78 122z" />
    <glyph glyph-name="acircumflex" unicode="&#xe2;" 
d="M360 41c5 -27 19 -40 14 -49c-3 -5 -10 -6 -21 -3c-37 10 -64 58 -59 100c-53 -55 -128 -108 -202 -89c-49 12 -86 54 -79 110c5 95 106 162 197 194c25 8 106 28 114 62c16 70 -69 74 -127 43c-29 -16 -46 -33 -54 -30c-16 29 58 92 100 108c96 40 181 -18 170 -118
c-5 -40 -33 -80 -72 -104c-61 -37 -135 -46 -194 -92c-30 -22 -49 -64 -13 -79c41 -14 99 47 131 79c30 33 60 93 106 82c12 -3 20 -18 17 -33c-3 -52 -39 -121 -28 -181zM394 619c16 -30 26 -72 10 -82c-16 -11 -41 25 -56 53c-7 15 -13 31 -24 44c-13 -15 -27 -28 -42 -44
c-26 -29 -65 -63 -78 -53c-12 10 15 53 44 82c23 26 60 73 89 73c33 0 44 -49 57 -73z" />
    <glyph glyph-name="atilde" unicode="&#xe3;" 
d="M360 41c5 -27 19 -40 14 -49c-3 -5 -10 -6 -21 -3c-37 10 -64 58 -59 100c-53 -55 -128 -108 -202 -89c-49 12 -86 54 -79 110c5 95 106 162 197 194c25 8 106 28 114 62c16 70 -69 74 -127 43c-29 -16 -46 -33 -54 -30c-16 29 58 92 100 108c96 40 181 -18 170 -118
c-5 -40 -33 -80 -72 -104c-61 -37 -135 -46 -194 -92c-30 -22 -49 -64 -13 -79c41 -14 99 47 131 79c30 33 60 93 106 82c12 -3 20 -18 17 -33c-3 -52 -39 -121 -28 -181zM324 614c27 -19 67 -10 90 17c9 11 17 20 24 20c17 -17 -21 -73 -54 -84c-70 -27 -93 39 -144 20
c-31 -13 -41 -44 -54 -44c-7 3 -10 18 1 37c32 56 90 65 137 34z" />
    <glyph glyph-name="adieresis" unicode="&#xe4;" 
d="M360 41c5 -27 19 -40 14 -49c-3 -5 -10 -6 -21 -3c-37 10 -64 58 -59 100c-53 -55 -128 -108 -202 -89c-49 12 -86 54 -79 110c5 95 106 162 197 194c25 8 106 28 114 62c16 70 -69 74 -127 43c-29 -16 -46 -33 -54 -30c-16 29 58 92 100 108c96 40 181 -18 170 -118
c-5 -40 -33 -80 -72 -104c-61 -37 -135 -46 -194 -92c-30 -22 -49 -64 -13 -79c41 -14 99 47 131 79c30 33 60 93 106 82c12 -3 20 -18 17 -33c-3 -52 -39 -121 -28 -181zM249 675c29 3 41 -30 33 -56c-11 -33 -53 -50 -82 -37c-13 7 -18 18 -17 32c3 27 38 58 66 61z
M424 675c29 3 41 -30 33 -56c-11 -33 -53 -50 -82 -37c-13 7 -18 18 -17 32c3 27 38 58 66 61z" />
    <glyph glyph-name="aring" unicode="&#xe5;" 
d="M360 41c5 -27 19 -40 14 -49c-3 -5 -10 -6 -21 -3c-37 10 -64 58 -59 100c-53 -55 -128 -108 -202 -89c-49 12 -86 54 -79 110c5 95 106 162 197 194c25 8 106 28 114 62c16 70 -69 74 -127 43c-29 -16 -46 -33 -54 -30c-16 29 58 92 100 108c96 40 181 -18 170 -118
c-5 -40 -33 -80 -72 -104c-61 -37 -135 -46 -194 -92c-30 -22 -49 -64 -13 -79c41 -14 99 47 131 79c30 33 60 93 106 82c12 -3 20 -18 17 -33c-3 -52 -39 -121 -28 -181zM220 625c7 33 34 65 70 80c31 11 50 4 47 -3s-18 -11 -37 -23c-20 -12 -37 -34 -42 -54
c-7 -31 18 -58 50 -58c33 0 70 27 75 58c5 20 -3 42 -18 54s-29 16 -28 23s23 14 47 3c31 -12 44 -43 37 -80c-8 -55 -69 -93 -121 -96c-52 0 -93 40 -80 96z" />
    <glyph glyph-name="mu" unicode="&#xb5;" horiz-adv-x="557" 
d="M488 30c-13 -45 -57 -63 -60 -42l-11 75c-45 -44 -91 -64 -147 -64c-51 0 -88 19 -110 56c-32 -125 -44 -176 -49 -195c-19 -88 -90 -118 -60 16c32 146 89 452 125 584c24 85 106 83 87 0c-16 -77 -70 -323 -70 -326c8 -44 48 -66 91 -66c48 0 102 24 130 67
c11 20 28 63 95 325c19 67 108 96 84 -21c-32 -157 -70 -276 -105 -409z" />
    <glyph glyph-name="paragraph" unicode="&#xb6;" horiz-adv-x="564" 
d="M599 614l-139 -656c-8 -36 -11 -52 -39 -52h-38l134 635c5 19 -5 32 -24 32c-16 0 -32 -13 -37 -32l-134 -635h-36c-27 0 -27 31 -19 67l57 271c8 29 -229 -29 -173 223c52 253 338 214 398 214s58 -32 50 -67z" />
    <glyph glyph-name="florin" unicode="&#x192;" horiz-adv-x="621" 
d="M470 464c-9 -19 -21 -52 -37 -95c208 5 124 -90 -31 -90c-35 -104 -70 -219 -95 -287c-42 -124 -154 -182 -221 -182c-97 0 -87 113 -50 92c34 -18 127 3 165 67c24 43 59 174 99 308c-219 -4 -129 79 29 87c12 35 25 68 40 99c80 170 175 225 253 225
c77 0 111 -34 107 -63c-8 -34 -174 40 -259 -161z" />
    <glyph glyph-name="currency" unicode="&#xa4;" horiz-adv-x="511" 
d="M495 411c28 -68 17 -149 -39 -222c32 -45 54 -95 35 -111s-61 17 -98 57c-64 -45 -189 -39 -237 -2c-52 -39 -108 -71 -119 -55c-14 17 29 62 77 107c-30 70 5 157 61 226c-34 47 -63 104 -41 121c20 17 69 -23 106 -66c62 52 163 52 214 1c56 43 120 82 134 65
s-41 -74 -93 -121zM287 179c113 0 145 144 113 206c-35 67 -102 41 -150 -13c-67 -78 -100 -193 37 -193z" />
    <glyph glyph-name="brokenbar" unicode="&#xa6;" horiz-adv-x="197" 
d="M129 154c27 0 25 -46 17 -80c-8 -37 -44 -240 -100 -236c-52 4 19 202 27 239c8 35 30 77 56 77zM257 697c27 0 25 -56 14 -100c-8 -38 -48 -303 -105 -299c-53 4 21 260 33 300c8 43 32 99 58 99z" />
    <glyph glyph-name="onesuperior" unicode="&#xb9;" horiz-adv-x="130" 
d="M204 644c24 0 21 -28 18 -46c-19 -63 -39 -124 -56 -192c-11 -38 -29 -87 -44 -87c-17 0 -11 51 -1 90l59 198c-6 0 -22 -6 -27 2c-8 17 37 35 51 35z" />
    <glyph glyph-name="twosuperior" unicode="&#xb2;" horiz-adv-x="302" 
d="M339 358c-3 -29 -101 -32 -194 -32c-18 0 -41 10 -33 37c2 20 52 49 72 59c44 26 118 63 134 120c20 71 -77 56 -118 19c-27 -22 -37 -47 -45 -47c-4 0 -6 7 -3 19c16 66 103 118 164 98c40 -11 57 -50 44 -93c-25 -83 -115 -120 -183 -166c13 0 27 -5 101 -5
c36 0 61 -3 61 -9z" />
    <glyph glyph-name="threesuperior" unicode="&#xb3;" horiz-adv-x="318" 
d="M381 411c4 -75 -103 -134 -173 -134c-41 0 -86 17 -107 53c-6 11 -7 18 -3 22c9 9 28 -12 61 -20c17 -7 37 -8 58 -7c37 3 105 29 113 73c-3 35 -74 37 -103 40c-27 0 -32 -4 -39 6c-11 19 -1 31 13 37c43 5 118 52 123 92c3 34 -47 35 -85 21c-37 -16 -56 -34 -64 -31
c-4 1 -3 11 5 24c26 45 90 62 132 57c31 -6 61 -23 64 -58c0 -42 -36 -76 -72 -104c37 -11 71 -27 77 -71z" />
    <glyph glyph-name="onequarter" unicode="&#xbc;" horiz-adv-x="634" 
d="M572 644c-80 -174 -208 -369 -314 -571c-37 -63 -67 -107 -82 -104s-5 48 31 121c96 193 197 373 330 564c13 17 23 28 31 27c7 -1 11 -14 4 -37zM608 125c-1 -7 -13 -13 -30 -18c-8 -27 -11 -52 -18 -79c-4 -15 -8 -27 -16 -31s-18 5 -22 24c-7 23 -1 51 6 78
c-31 -3 -60 -3 -89 1c-20 3 -45 7 -53 26c-16 37 33 95 60 130c41 54 72 92 85 87c7 -4 5 -20 -6 -41c-15 -30 -116 -152 -70 -156c16 -3 32 -2 51 -2h34c12 39 25 78 40 115c5 18 34 83 49 83c21 0 1 -76 -4 -89c-15 -39 -27 -76 -38 -113c13 -3 24 -8 21 -15zM273 644
c25 0 21 -28 18 -46c-19 -64 -37 -124 -56 -192c-11 -38 -28 -87 -44 -87s-11 51 -1 90l59 198c-7 -1 -23 -5 -27 2c-8 17 37 35 51 35z" />
    <glyph glyph-name="onehalf" unicode="&#xbd;" horiz-adv-x="595" 
d="M546 644c-80 -174 -208 -369 -314 -571c-37 -63 -67 -107 -82 -104s-5 48 31 121c96 193 197 373 330 564c13 17 23 28 31 27c7 -1 11 -14 4 -37zM570 28c0 -29 -103 -32 -194 -32c-20 0 -40 10 -33 37c3 21 52 47 72 59c45 26 118 63 134 120c22 71 -78 54 -118 19
c-27 -21 -37 -48 -45 -47c-4 0 -5 6 -3 19c13 67 105 116 164 98c39 -11 57 -49 44 -93c-24 -82 -116 -123 -183 -166c13 0 27 -5 101 -5c36 0 61 -2 61 -9zM260 644c25 0 21 -28 18 -46c-19 -64 -37 -124 -56 -192c-11 -38 -28 -87 -44 -87s-11 51 -1 90l59 198
c-7 -1 -23 -5 -27 2c-8 17 37 35 51 35z" />
    <glyph glyph-name="threequarters" unicode="&#xbe;" horiz-adv-x="678" 
d="M642 644c-80 -174 -208 -369 -314 -571c-37 -63 -67 -107 -82 -104s-5 48 31 121c96 193 197 373 330 564c13 17 23 28 31 27c7 -1 11 -14 4 -37zM658 125c-1 -7 -13 -13 -30 -18c-8 -27 -11 -52 -18 -79c-4 -15 -8 -27 -16 -31s-18 5 -22 24c-7 23 -1 51 6 78
c-31 -3 -60 -3 -89 1c-20 3 -45 7 -53 26c-16 37 33 95 60 130c41 54 72 92 85 87c7 -4 5 -20 -6 -41c-15 -30 -116 -152 -70 -156c16 -3 32 -2 51 -2h34c12 39 25 78 40 115c5 18 34 83 49 83c21 0 1 -76 -4 -89c-15 -39 -27 -76 -38 -113c13 -3 24 -8 21 -15zM381 411
c5 -77 -104 -134 -173 -134c-43 -1 -87 18 -107 53c-6 11 -7 18 -3 22c8 7 28 -9 61 -20c16 -6 35 -8 58 -7c34 3 108 29 113 73c0 36 -76 37 -103 40c-28 -1 -32 -5 -39 6c-12 17 0 33 13 37c42 5 118 52 123 92c3 31 -45 37 -85 21c-36 -15 -56 -35 -64 -31
c-5 3 -3 11 5 24c27 43 89 62 132 57c31 -5 61 -23 64 -58c3 -41 -37 -77 -72 -104c37 -8 73 -28 77 -71z" />
    <glyph glyph-name="scaron" unicode="&#x161;" horiz-adv-x="347" 
d="M60 308c-3 126 161 227 271 189c59 -22 79 -84 71 -130c-4 -19 -17 -27 -25 -26c-19 3 -37 61 -88 69c-41 7 -95 -6 -123 -50c-48 -76 107 -84 150 -115c39 -28 52 -84 28 -137c-23 -52 -78 -89 -134 -104c-85 -24 -192 12 -160 70c11 17 65 -29 135 -7
c41 12 64 39 73 68c8 26 -29 40 -49 45c-73 19 -146 40 -149 128zM229 608c-16 30 -26 72 -10 82c16 11 41 -25 56 -53c7 -15 13 -31 24 -44l42 44c26 29 65 63 78 53c13 -11 -16 -52 -44 -82c-24 -27 -60 -73 -89 -73c-31 0 -46 49 -57 73z" />
    <glyph glyph-name="Scaron" unicode="&#x160;" horiz-adv-x="465" 
d="M494 195c-27 -120 -171 -193 -317 -193c-98 0 -148 77 -135 178c5 27 13 42 24 43c8 1 14 -12 21 -32c13 -48 40 -98 107 -98c76 0 191 33 207 113c7 33 -3 57 -31 74c-92 37 -231 43 -247 166c-21 148 129 274 294 274c93 0 183 -71 161 -171c-7 -28 -18 -43 -26 -43
c-18 0 -13 58 -58 93c-21 19 -54 30 -91 30c-77 0 -188 -59 -183 -151c20 -104 176 -79 249 -152c35 -35 36 -83 25 -131zM330 808c-16 30 -26 72 -10 82c16 11 41 -25 56 -53c7 -15 13 -31 24 -44l42 44c26 29 65 63 78 53c13 -11 -16 -52 -44 -82c-24 -27 -60 -73 -89 -73
c-31 0 -46 49 -57 73z" />
    <glyph glyph-name="zcaron" unicode="&#x17e;" horiz-adv-x="408" 
d="M419 60c-8 -41 -192 -86 -276 -86c-62 0 -138 13 -149 61c-7 33 8 67 47 96c56 40 382 226 335 258c-49 32 -161 10 -228 23c-35 5 -58 17 -55 34c4 19 31 30 68 39c36 8 123 17 166 14c65 -5 172 -23 145 -115c-32 -132 -260 -232 -368 -312c38 -13 119 -16 169 -11
c85 5 154 34 146 -1zM260 608c-16 30 -26 72 -10 82c16 11 41 -25 56 -53c7 -15 13 -31 24 -44l42 44c26 29 65 63 78 53c13 -11 -16 -52 -44 -82c-24 -27 -60 -73 -89 -73c-31 0 -46 49 -57 73z" />
    <glyph glyph-name="Zcaron" unicode="&#x17d;" horiz-adv-x="766" 
d="M849 31c7 -7 -10 -31 -50 -51c-151 -80 -396 -34 -538 -5c-55 11 -149 28 -197 55c-17 11 -29 28 -30 53c3 95 175 145 248 179c135 57 278 115 406 207c39 29 96 77 93 127c-3 31 -37 33 -68 32c-126 -4 -342 -64 -431 -19c-33 17 -43 38 -35 46c8 11 26 6 57 7
c134 3 286 74 428 82c126 5 219 -82 147 -221c-95 -198 -461 -307 -663 -410c164 -40 388 -100 576 -81c32 3 50 7 57 -1zM569 858c-16 30 -26 72 -10 82c16 11 41 -25 56 -53c7 -15 13 -31 24 -44l42 44c26 29 65 63 78 53c13 -11 -16 -52 -44 -82c-24 -27 -60 -73 -89 -73
c-31 0 -46 49 -57 73z" />
    <glyph glyph-name="Yacute" unicode="&#xdd;" horiz-adv-x="644" 
d="M666 277c-64 -172 -93 -500 -408 -577c-87 -21 -137 7 -132 29c4 19 54 27 122 54c109 33 217 152 262 323c-43 -57 -133 -103 -222 -103c-173 0 -266 109 -197 297c85 239 194 400 235 400s-37 -185 -112 -389c-61 -157 25 -202 111 -202c111 0 207 129 250 289
c20 73 68 300 174 300c57 0 -23 -260 -83 -421zM574 873c35 43 134 41 72 -19c-32 -29 -109 -103 -150 -103c-30 0 62 100 78 122z" />
    <glyph glyph-name="yacute" unicode="&#xfd;" horiz-adv-x="458" 
d="M479 499c135 0 -88 -510 -115 -564c-62 -121 -179 -308 -337 -300c-19 0 -108 24 -90 55c11 17 51 7 100 18c113 27 186 145 240 253c37 76 67 153 94 238c-48 -85 -157 -267 -272 -227c-85 26 -64 150 -43 227c12 51 104 304 146 304c37 0 -17 -132 -55 -288
c-19 -76 -30 -152 -2 -152c73 0 163 191 216 303c19 40 62 133 118 133zM347 663c35 43 134 41 72 -19c-32 -29 -109 -103 -150 -103c-30 0 62 100 78 122z" />
    <glyph glyph-name="thorn" unicode="&#xfe;" horiz-adv-x="463" 
d="M429 499c86 -13 90 -119 74 -200c-27 -125 -126 -283 -273 -307c-39 -7 -70 7 -83 22s-13 28 -6 35s19 5 34 5c68 0 136 60 181 124c128 168 40 317 -113 83c-43 -65 -87 -144 -123 -199c-19 -73 -69 -369 -125 -369c-85 0 100 660 116 730c15 53 35 114 58 161
s45 80 62 77c45 -8 -26 -243 -46 -329c57 78 143 180 244 167z" />
    <glyph glyph-name="Thorn" unicode="&#xde;" horiz-adv-x="507" 
d="M444 722c144 19 174 -106 140 -225c-28 -109 -191 -279 -319 -287c-36 -3 -63 10 -74 25s-11 27 -3 34c7 7 17 6 32 6c129 0 293 200 265 316c-16 61 -104 26 -167 -29c-55 -47 -93 -99 -124 -160c-28 -64 -81 -487 -153 -487c-85 0 102 660 118 730c15 53 34 114 57 161
s46 80 62 77c37 -6 -1 -157 -28 -259c42 45 123 90 194 98z" />
    <glyph glyph-name="Eth" unicode="&#xd0;" horiz-adv-x="623" 
d="M568 730c156 -59 185 -269 113 -438c-84 -195 -376 -382 -568 -322c-20 -27 -35 -16 -34 13c-15 8 -92 65 -59 92c15 11 36 -1 71 -10c19 68 38 131 59 195c-30 3 -67 15 -62 38c6 25 55 36 85 39c21 69 37 141 48 224c-40 -19 -129 -158 -161 -147c-16 4 -9 45 18 98
c94 179 316 274 490 218zM591 314c51 115 42 277 -75 325c-72 27 -163 10 -242 -38c23 -68 13 -164 -11 -264h86c29 0 85 -11 79 -39c-5 -28 -66 -39 -95 -39h-92c-24 -76 -51 -148 -78 -205c160 -8 340 95 428 260z" />
    <glyph glyph-name="eth" unicode="&#xf0;" horiz-adv-x="475" 
d="M465 570c112 -144 77 -573 -218 -573c-120 0 -185 85 -180 194c3 95 49 184 148 221c89 32 180 0 212 -69c4 49 -15 128 -52 193c-25 -7 -154 -51 -157 -8c-5 24 88 62 111 70c-29 29 -63 48 -102 48c-24 0 -40 20 -19 44c82 53 159 19 214 -52c25 11 59 21 123 40
c19 0 30 -7 30 -15c1 -8 -5 -25 -20 -36c-39 -27 -67 -44 -90 -57zM280 93c74 0 112 62 102 114c-11 56 -63 156 -152 121c-53 -21 -74 -95 -71 -139c3 -76 77 -96 121 -96z" />
    <glyph glyph-name="multiply" unicode="&#xd7;" horiz-adv-x="458" 
d="M354 296c75 -95 104 -153 77 -176c-28 -23 -78 18 -154 114c-121 -98 -190 -136 -206 -114c-17 24 37 81 157 177c-80 101 -107 160 -80 183s77 -20 157 -121c123 98 192 136 208 113c17 -23 -38 -80 -159 -176z" />
    <glyph glyph-name="Gbreve" unicode="&#x11e;" horiz-adv-x="628" 
d="M700 689c54 -48 66 -101 51 -111c-15 -13 -49 20 -104 47c-27 13 -58 23 -91 26c-157 13 -319 -147 -359 -306c-32 -134 34 -275 157 -275c37 0 84 19 98 35c-4 41 -7 82 1 127c11 72 59 159 143 151c64 -11 84 -86 76 -150c-8 -68 -58 -123 -122 -172
c12 -95 -88 -341 -247 -313c-25 4 -35 11 -32 21c3 9 17 15 37 23c104 40 128 113 141 214c-40 -16 -82 -32 -126 -32c-171 0 -272 177 -221 375c48 199 271 429 485 393c48 -8 86 -30 113 -53zM565 284c-23 -32 -19 -75 -18 -111c33 35 33 76 18 111zM543 797
c-52 0 -101 36 -96 95c3 19 12 32 20 31c9 0 12 -10 17 -22c11 -31 32 -55 69 -58c39 0 69 27 96 58c9 12 16 22 25 22c8 1 13 -12 8 -31c-16 -59 -84 -92 -139 -95z" />
    <glyph glyph-name="Tcaron" unicode="&#x164;" horiz-adv-x="326" 
d="M862 721c4 -17 -50 -53 -130 -78c-89 -29 -180 -38 -307 -41c-16 -148 -75 -408 -168 -547c-21 -32 -102 -122 -110 -82c-7 14 25 84 38 107c64 139 115 324 162 523c-72 3 -144 11 -203 20c-72 11 -122 24 -118 43c4 20 61 32 138 39c188 11 370 -3 566 18
c75 8 127 16 132 -2zM365 864c-16 30 -26 72 -10 82c16 11 41 -25 56 -53c7 -15 13 -31 24 -44l42 44c26 29 65 63 78 53c13 -11 -16 -52 -44 -82c-24 -27 -60 -73 -89 -73c-31 0 -46 49 -57 73z" />
    <glyph glyph-name="tcaron" unicode="&#x165;" horiz-adv-x="400" 
d="M251 423c-9 -21 -126 -390 -56 -359c14 6 53 50 63 50c7 -3 12 -17 1 -44c-16 -44 -64 -86 -114 -78c-123 24 -16 317 7 410c-32 -5 -57 15 -46 42c9 31 44 38 79 54c23 61 43 124 70 187c9 25 17 38 24 39c10 2 17 -10 20 -35c7 -52 -7 -114 -22 -170c23 4 43 7 63 6
c35 -3 57 -14 54 -31c-5 -17 -26 -28 -57 -40c-24 -11 -55 -22 -86 -31zM536 701c10 21 57 28 57 2c3 -59 -44 -154 -110 -186c-27 -13 -46 -14 -49 1c-3 13 7 27 22 46c35 43 57 86 80 137z" />
  </font>
</defs>
</svg>
