<svg xmlns="http://www.w3.org/2000/svg" xmlns:xlink="http://www.w3.org/1999/xlink" viewBox="0 0 432.42 358.78"><defs><style>.cls-1{stroke:#000;stroke-miterlimit:10;stroke-width:7px;fill:url(#Unbenannter_Verlauf_576);}.cls-2{fill:#fff;}</style><linearGradient id="Unbenannter_Verlauf_576" x1="825.89" y1="568.3" x2="1050.59" y2="472.01" gradientTransform="matrix(0.92, 0.39, -0.39, 0.92, 275.62, -333.03)" gradientUnits="userSpaceOnUse"><stop offset="0.28" stop-color="#ffa800"/><stop offset="0.85" stop-color="#68e042"/><stop offset="0.92" stop-color="#68e042"/><stop offset="1" stop-color="#68e042"/></linearGradient></defs><title>logo</title><g id="Auge"><path class="cls-1" d="M1028.11,424.54a57.61,57.61,0,0,0-7-5c-28.73-17.55-65.11-12.38-96.52-7-33,5.59-68.08,5.79-95.68,23.38A122.29,122.29,0,0,0,885.06,612a122.23,122.23,0,0,0,160.51-64.22C1060.76,512.38,1060.78,451.9,1028.11,424.54Z" transform="translate(-746.02 -352.27)"/></g><g id="Braue"><path d="M747.55,451.1c43.87-28.52,100.11-45.25,151-56a421.21,421.21,0,0,1,46.57-7.25,345.17,345.17,0,0,1,59.8-.57,520.54,520.54,0,0,1,63,9.19c21.45,4.34,44.83,7.9,65.46,15.25-10.3-3.67-20.47-13.44-29.75-19.27a270.94,270.94,0,0,0-29.38-15.88c-21.67-10.14-44.41-18-68.22-21.07-36.5-4.7-75.14-5.26-110.61,5.43-27.42,8.26-54.08,19.39-78.44,34.53C791.38,411.3,772.36,434.59,747.55,451.1Z" transform="translate(-746.02 -352.27)"/></g><g id="Pupille"><path d="M991,509.81a58,58,0,1,0-62.69,52.89A58,58,0,0,0,991,509.81Z" transform="translate(-746.02 -352.27)"/><path class="cls-2" d="M985.35,475.5A22.5,22.5,0,1,0,961,496,22.5,22.5,0,0,0,985.35,475.5Z" transform="translate(-746.02 -352.27)"/></g><g id="Oben2"><path d="M1164.47,420.06a6.75,6.75,0,0,1-2.76,2.3c-7.63,3.94-23.44-1.92-31.57-3.24-16.26-2.65-32.6-5-49.05-6.07-61.76-4.13-129.8-5-190,10.67a275.49,275.49,0,0,0-55.18,21.16c-18,9.13-36.1,18.06-52.31,30.29-14.21,10.72-31.11,21.37-37.56,39,13.15-42.65,45.17-76.51,83.89-97.59a243.83,243.83,0,0,1,37.49-16.39c15.93-5.43,32.54-9.17,49.09-12.13,56.07-10,114-14,170.53-5.7,14.14,2.08,28.18,4.86,41.69,9.64,9.38,3.32,18.71,7.41,26.57,13.6C1159.42,408.84,1167.45,415.39,1164.47,420.06Z" transform="translate(-746.02 -352.27)"/></g><g id="Unten2"><path d="M1113.63,408.58h-.06c3,11,.69,23.84,0,35.08-3.25,54.06-18,107.79-56.17,148-40.79,42.93-89.72,65-148.63,68.14a374.53,374.53,0,0,1-48.78-.41c-16.42-1.27-32.63-4.19-48.8-7.2,26.82,8.64,56.14,12.1,84.08,14,57.09,3.94,120-5.83,162.66-47.07,29.22-28.26,50.88-63.95,65.76-101.62a341,341,0,0,0,13.64-42.44c3.45-13.7,6.08-27.57,9.23-41.33,1.32-5.77,5.45-15.49,1.25-20.87C1141.71,405,1121.94,408.31,1113.63,408.58Z" transform="translate(-746.02 -352.27)"/></g><g id="Schrift"><path d="M1047.86,701.93c2.52,4.36,3.48,8.18,1.66,9s-5-1.58-8.94-5.16c-9.68-9-18.51-19.52-22.62-32.29-1.45-4.92-.75-9.05.86-9.38s3.61,2.59,6.24,6.66C1032.7,681.14,1040.57,691.26,1047.86,701.93Z" transform="translate(-746.02 -352.27)"/><path d="M1089.7,683.27c-9.69,5.25-16-4-19.93-7.9-1.73-1.41-8.5-9.38-11.31-6.9s-.73,7.25.75,9.88c2.33,4.12,5.42,8,7.22,12.72.88,2.3,1.28,5.35-1.45,8-3.85,3.76-9.23,1.38-11.78-.89a55.75,55.75,0,0,1-6.61-7.6c-2.88-3.62-5.49-7.67-8.18-11.63-.44-.63-.83-1-.82-1.61,0-.3.27-.63.8-.86a5.09,5.09,0,0,1,2.22-.34,13.22,13.22,0,0,1,5.1,2c2.5,1.72,7.12,7.27,9.12,9.63-2-4-6.36-11.47-5.24-16.67a11.51,11.51,0,0,1,3.63-6.63,14.69,14.69,0,0,1,6.59-3.63c6.93-1.77,13.25,5.85,16.81,9.48,5.27,5.36,7.32,8.83,12.62,10,.69.26,1.62.17,2.09.5S1091.69,682.11,1089.7,683.27Z" transform="translate(-746.02 -352.27)"/><path d="M1081.4,644.49c5.24-2.41,10.45-1.41,12.92.6a1.42,1.42,0,0,1,.08,2.31c-1.42,1-6.34,0-10.23,2.53-3.15,2-6,5.41-5.12,8.53,1.56,5.39,12.78-2.89,17.68-4.34,4.44-1.31,9-.27,11.06,2.79s.94,7.47-1.89,11.29c-4.2,5.83-14.79,10.64-16.11,6.94-.41-1.12,6.69-2.7,10-7.51,2-2.79,1.73-5,.38-6.5-1.22-1.32-4.66.36-6.37,1.33-6.29,3.52-13,6.79-18.9,3.63C1066.56,661.5,1071.82,649.1,1081.4,644.49Z" transform="translate(-746.02 -352.27)"/><path d="M1092.69,623.22c1.42,1.69,0,4.7-2.56,5.88a3.05,3.05,0,0,1-3-.16c-1.5-1.11-1.29-4.14.18-5.79A3.75,3.75,0,0,1,1092.69,623.22Zm9.21,11.68c1.87,1.88,4.56,4.39,7,6.45,3.07,2.58,6.6,5.17,9.34,8.73,1.89,2.46,2.45,4.84,1.21,5.75s-3.3,0-6-1.5a60.72,60.72,0,0,1-10.5-7.62,22.59,22.59,0,0,1-6.24-8.57c-1.09-3-.67-5.83.61-6.28S1100,633,1101.9,634.9Z" transform="translate(-746.02 -352.27)"/><path d="M1135.39,611.41c-.92,1.16-3.72,0-7.15,0a10.36,10.36,0,0,0-8.85,5.62,15.94,15.94,0,0,0,2.68,19c1,1.09,4.59,3.25,6.76.89,8.12-6.81-2.75-20.37,1.52-23.18,5.41-3.55,19.47,8.35,24.31,14.77,4.44,5.89,9.11,16.5,2.43,25.81-2.89,4-8,6.48-12.3,5.79-1.65-.28-2.33-.77-2-1.63.43-1.26,5.67-2.72,7-4.22,9.14-10.35-3.41-24.67-11.8-30.87.88,5.46.65,13-4.9,18.52-5.75,5.69-13.33,3.63-17.37-.53-6.28-6.47-7.59-19.27-2.55-26.84,3.71-6,10.4-10.35,16.79-8.53C1131.05,606.21,1137.13,609.21,1135.39,611.41Z" transform="translate(-746.02 -352.27)"/><path d="M1167.71,593.16c.72.25,1.43.31,1.78.74.58.71-1,2.18-1.54,2.47-5.14,2.8-14.39-2.32-17.65-4.6-1.73-1.17-7.4-5.64-5.13-1.29,1.37,2.62,3.26,5.35,4.95,7.95,3.2,4.9,10.93,10.91,6.62,15-2.09,2.31-4.83,1.5-6.59.54a301.35,301.35,0,0,1-27.2-21.53c-2.79-2.4-5.71-5.15-7.92-7.38-1.24-1.22-3.61-3.08-3.43-4.68.24-2.09,6-.07,6.46.15,8,4.75,15.07,11.19,22.44,16.81-2-4.18-5.37-9.77-1.41-14.49,3.22-3.85,8.39-1.43,11.1.19,5.55,3.26,10.48,6.56,14.6,8.79A17.16,17.16,0,0,0,1167.71,593.16Z" transform="translate(-746.02 -352.27)"/><path d="M1174,578.05c.12-1.08-1.42-4.46-1-5.16.47-.46,1.62-.55,3.06.53a6.57,6.57,0,0,1,1,9.2c-8.57,7.41-20.42-2.27-27.55-7.38-1,2.22-3.31,3.3-4.61,2.18-1.47-1.27-.69-3.69-.36-6.31-3.06-2.77-6.32-5.44-9.27-8.58-1.23-1.14-1.74-1.94-1.55-2.41.25-.67,1.25-.84,2.93-.47,3.52.71,7,2.91,10,5a24.79,24.79,0,0,1,1.9-4.25c1.44-2.24,3-3.52,3.9-3s.85,2.29.6,4.52a47.47,47.47,0,0,1-1.12,6.3C1153,569.25,1173.42,583.46,1174,578.05Z" transform="translate(-746.02 -352.27)"/></g></svg>